<svg id="svg" version="1.1" xmlns="http://www.w3.org/2000/svg" xmlns:xlink="http://www.w3.org/1999/xlink" width="400" height="64.30260047281324" viewBox="0, 0, 400,64.30260047281324"><g id="svgg"><path id="path1" d="M365.539 5.027 C 365.433 5.134,364.724 5.251,363.964 5.288 C 363.205 5.325,362.433 5.419,362.250 5.498 C 362.067 5.576,361.595 5.685,361.201 5.740 C 360.807 5.795,360.357 5.903,360.201 5.981 C 359.849 6.156,358.915 6.484,358.250 6.667 C 357.615 6.841,356.609 7.224,356.500 7.333 C 356.317 7.516,355.293 8.000,355.090 8.000 C 354.971 8.000,354.781 8.112,354.667 8.250 C 354.553 8.387,354.357 8.500,354.231 8.500 C 354.106 8.500,353.510 8.838,352.908 9.250 C 352.305 9.663,351.760 10.000,351.696 10.000 C 351.632 10.000,351.361 10.206,351.093 10.458 C 350.826 10.710,350.429 11.037,350.212 11.183 C 349.644 11.568,346.667 14.469,346.667 14.639 C 346.667 14.717,346.507 14.925,346.313 15.099 C 345.946 15.428,343.333 19.287,343.333 19.499 C 343.333 19.566,343.108 20.041,342.833 20.557 C 342.558 21.072,342.333 21.598,342.333 21.726 C 342.333 21.854,342.221 22.053,342.083 22.167 C 341.946 22.281,341.833 22.537,341.833 22.737 C 341.833 22.937,341.769 23.171,341.691 23.258 C 341.498 23.475,341.000 25.342,341.000 25.853 C 341.000 26.080,340.920 26.347,340.822 26.445 C 340.641 26.625,340.467 27.793,340.134 31.056 C 340.000 32.374,340.000 33.320,340.134 34.556 C 340.482 37.764,340.637 38.800,340.818 39.138 C 340.918 39.325,341.000 39.656,341.000 39.872 C 341.000 40.089,341.074 40.341,341.165 40.432 C 341.256 40.523,341.381 40.968,341.443 41.422 C 341.505 41.876,341.656 42.347,341.778 42.469 C 341.900 42.591,342.000 42.831,342.000 43.002 C 342.000 43.173,342.075 43.360,342.167 43.417 C 342.258 43.473,342.333 43.638,342.333 43.783 C 342.333 44.105,343.566 46.705,343.869 47.022 C 343.989 47.147,344.183 47.438,344.300 47.667 C 344.607 48.267,344.835 48.640,345.565 49.737 C 346.331 50.887,350.660 55.366,351.500 55.878 C 351.821 56.073,352.426 56.518,352.844 56.866 C 353.262 57.215,353.685 57.500,353.782 57.500 C 353.879 57.500,354.053 57.613,354.167 57.750 C 354.281 57.887,354.497 58.000,354.647 58.000 C 354.797 58.000,355.109 58.175,355.340 58.389 C 355.571 58.604,355.964 58.830,356.213 58.893 C 356.463 58.955,356.667 59.080,356.667 59.170 C 356.667 59.260,356.807 59.333,356.980 59.333 C 357.152 59.333,357.386 59.446,357.500 59.583 C 357.614 59.721,357.914 59.833,358.167 59.833 C 358.419 59.833,358.719 59.946,358.833 60.083 C 358.947 60.221,359.200 60.336,359.395 60.339 C 359.590 60.342,359.896 60.454,360.074 60.589 C 360.251 60.723,360.601 60.833,360.851 60.833 C 361.101 60.833,361.331 60.910,361.362 61.004 C 361.420 61.176,362.356 61.387,364.322 61.672 C 364.912 61.758,365.471 61.904,365.564 61.997 C 365.795 62.228,373.706 62.227,373.938 61.996 C 374.032 61.901,374.516 61.783,375.013 61.732 C 375.510 61.682,376.067 61.576,376.250 61.498 C 376.433 61.420,376.940 61.309,377.375 61.251 C 377.810 61.193,378.167 61.084,378.167 61.008 C 378.167 60.932,378.410 60.832,378.708 60.786 C 379.402 60.678,380.454 60.279,380.705 60.028 C 380.812 59.921,381.054 59.831,381.242 59.828 C 381.430 59.825,381.729 59.713,381.907 59.578 C 382.085 59.443,382.366 59.333,382.532 59.333 C 382.698 59.333,382.833 59.263,382.833 59.178 C 382.833 59.092,383.001 58.969,383.206 58.904 C 383.411 58.839,384.166 58.384,384.883 57.893 C 385.600 57.402,386.240 57.000,386.305 57.000 C 386.370 57.000,386.871 56.590,387.420 56.090 C 387.968 55.589,388.471 55.177,388.536 55.173 C 388.699 55.164,390.240 53.650,390.431 53.312 C 390.515 53.163,391.071 52.497,391.667 51.833 C 392.262 51.170,392.781 50.543,392.818 50.442 C 392.856 50.340,393.100 49.963,393.360 49.603 C 393.620 49.244,393.833 48.855,393.833 48.739 C 393.833 48.623,393.890 48.503,393.958 48.472 C 394.119 48.401,395.167 46.311,395.167 46.062 C 395.167 45.959,395.279 45.781,395.417 45.667 C 395.554 45.553,395.667 45.253,395.667 45.000 C 395.667 44.747,395.779 44.447,395.917 44.333 C 396.054 44.219,396.167 43.948,396.167 43.730 C 396.167 43.512,396.238 43.333,396.326 43.333 C 396.413 43.333,396.529 43.052,396.584 42.708 C 396.638 42.365,396.791 41.718,396.925 41.273 C 397.058 40.827,397.167 40.245,397.167 39.981 C 397.167 39.716,397.232 39.500,397.312 39.500 C 397.437 39.500,397.782 35.195,397.712 34.500 C 397.698 34.362,397.635 33.275,397.572 32.083 C 397.509 30.892,397.402 29.842,397.334 29.750 C 397.267 29.658,397.168 29.141,397.116 28.601 C 397.063 28.061,396.940 27.540,396.843 27.443 C 396.746 27.346,396.667 26.996,396.667 26.665 C 396.667 26.334,396.557 25.918,396.422 25.740 C 396.287 25.562,396.175 25.256,396.172 25.059 C 396.169 24.862,395.942 24.247,395.667 23.693 C 395.392 23.139,395.167 22.575,395.167 22.440 C 395.167 22.305,395.110 22.169,395.042 22.139 C 394.891 22.072,394.333 21.035,394.333 20.821 C 394.333 20.738,393.996 20.177,393.583 19.574 C 393.171 18.972,392.833 18.413,392.833 18.333 C 392.833 18.253,392.608 17.941,392.333 17.640 C 392.058 17.339,391.833 17.035,391.833 16.964 C 391.833 16.609,388.742 13.302,387.270 12.083 C 386.828 11.717,386.246 11.210,385.977 10.958 C 385.708 10.706,385.382 10.500,385.253 10.500 C 385.123 10.500,384.956 10.391,384.882 10.259 C 384.807 10.126,384.297 9.780,383.748 9.490 C 383.199 9.200,382.637 8.865,382.500 8.746 C 382.090 8.392,380.704 7.701,380.167 7.583 C 379.892 7.523,379.667 7.404,379.667 7.320 C 379.667 7.236,379.523 7.167,379.347 7.167 C 379.171 7.167,378.815 7.062,378.555 6.935 C 377.897 6.612,377.008 6.311,376.417 6.210 C 376.142 6.163,375.842 6.069,375.750 6.002 C 375.658 5.934,375.250 5.828,374.842 5.765 C 374.434 5.703,374.021 5.591,373.925 5.515 C 373.829 5.440,373.077 5.329,372.255 5.269 C 371.432 5.208,370.686 5.086,370.596 4.996 C 370.357 4.757,365.781 4.785,365.539 5.027 " stroke="none" fill="#cc242c" fill-rule="evenodd" data-index="1"></path><path id="path3" d="M160.500 8.667 L 154.583 8.750 153.000 9.838 C 148.274 13.087,144.994 17.000,143.504 21.167 C 143.203 22.010,143.092 25.395,143.330 26.500 C 143.438 27.004,143.566 27.695,143.614 28.035 C 143.661 28.376,143.805 28.741,143.934 28.847 C 144.062 28.954,144.167 29.181,144.167 29.351 C 144.167 30.133,145.976 32.600,147.546 33.959 C 148.747 34.999,152.978 37.333,153.661 37.333 C 153.827 37.333,154.177 37.445,154.439 37.582 C 154.702 37.719,155.076 37.832,155.271 37.832 C 155.465 37.833,155.915 37.935,156.271 38.059 C 156.626 38.183,157.517 38.370,158.250 38.475 C 162.436 39.073,163.345 39.239,163.811 39.488 C 163.995 39.586,164.284 39.667,164.454 39.667 C 165.662 39.667,168.333 42.030,168.333 43.099 C 168.333 43.304,168.413 43.499,168.510 43.531 C 169.055 43.713,168.837 47.437,168.180 49.182 C 167.785 50.230,166.311 51.983,165.453 52.423 C 164.392 52.968,162.734 53.555,161.917 53.676 C 158.385 54.198,157.972 54.223,156.195 54.023 C 154.511 53.833,154.119 53.746,152.061 53.101 C 151.590 52.954,151.093 52.833,150.956 52.833 C 150.819 52.833,150.614 52.721,150.500 52.583 C 150.386 52.446,150.160 52.333,149.998 52.333 C 149.673 52.333,147.312 51.162,146.212 50.454 C 145.824 50.204,145.468 50.000,145.421 50.000 C 145.374 50.000,144.724 49.547,143.978 48.994 C 143.232 48.440,142.537 48.014,142.435 48.047 C 142.333 48.079,141.237 50.101,140.000 52.540 C 138.762 54.979,137.586 57.273,137.386 57.637 C 137.186 58.002,137.067 58.345,137.122 58.400 C 137.177 58.455,147.709 58.500,160.526 58.500 L 183.830 58.500 185.712 56.618 C 187.306 55.024,189.167 52.871,189.167 52.621 C 189.167 52.581,189.485 52.063,189.875 51.468 C 190.265 50.874,190.799 49.907,191.062 49.319 C 191.325 48.731,191.607 48.137,191.688 48.000 C 191.769 47.862,191.861 47.675,191.892 47.583 C 191.924 47.492,192.044 47.154,192.159 46.833 C 192.275 46.512,192.432 45.950,192.509 45.583 C 192.586 45.217,192.724 44.579,192.817 44.167 C 193.078 43.006,193.040 40.585,192.750 39.891 C 192.612 39.562,192.500 39.086,192.500 38.833 C 192.500 38.581,192.387 38.281,192.250 38.167 C 192.112 38.053,192.000 37.862,192.000 37.743 C 192.000 36.751,187.756 32.500,186.766 32.500 C 186.642 32.500,186.447 32.388,186.333 32.250 C 186.219 32.112,186.004 31.998,185.855 31.995 C 185.705 31.992,185.208 31.805,184.750 31.580 C 184.292 31.354,183.780 31.169,183.614 31.168 C 183.448 31.167,183.148 31.075,182.947 30.962 C 182.594 30.764,181.538 30.481,180.000 30.171 C 179.588 30.088,178.725 30.010,178.083 29.999 C 176.106 29.964,172.730 29.342,172.088 28.895 C 171.907 28.770,171.644 28.667,171.502 28.667 C 171.210 28.667,169.592 27.623,169.071 27.098 C 165.806 23.811,166.605 17.518,170.526 15.645 C 172.642 14.634,176.496 14.330,178.833 14.989 C 179.246 15.105,179.996 15.316,180.500 15.457 C 181.004 15.598,181.567 15.771,181.750 15.843 C 181.933 15.914,182.496 16.099,183.000 16.256 C 183.504 16.412,184.163 16.643,184.464 16.770 C 184.765 16.896,185.086 17.000,185.178 17.000 C 185.439 17.000,188.472 18.487,188.585 18.670 C 188.918 19.208,189.342 18.776,190.266 16.958 C 193.512 10.577,194.260 8.952,194.082 8.664 C 193.996 8.525,170.428 8.527,160.500 8.667 M8.101 8.930 C 8.046 9.075,8.000 9.409,8.000 9.672 C 8.000 9.935,7.888 10.582,7.750 11.110 C 7.612 11.638,7.500 12.472,7.500 12.963 C 7.500 13.454,7.427 13.991,7.338 14.158 C 7.249 14.324,7.100 15.200,7.006 16.105 C 6.744 18.643,6.521 20.487,6.343 21.583 C 6.188 22.540,6.035 23.570,5.416 27.833 C 5.263 28.887,5.031 30.387,4.902 31.167 C 4.772 31.946,4.666 33.020,4.666 33.553 C 4.667 34.086,4.577 34.686,4.467 34.886 C 4.358 35.086,4.216 35.887,4.152 36.667 C 4.088 37.446,3.949 38.646,3.844 39.333 C 3.738 40.021,3.576 41.221,3.485 42.000 C 3.327 43.355,3.142 44.580,2.585 47.941 C 2.447 48.779,2.333 49.731,2.333 50.057 C 2.333 50.384,2.221 51.082,2.083 51.610 C 1.946 52.138,1.833 53.084,1.833 53.713 C 1.833 54.341,1.753 55.005,1.655 55.188 C 1.557 55.371,1.434 56.191,1.380 57.011 L 1.284 58.500 13.386 58.500 C 27.136 58.500,25.723 58.671,25.920 56.987 C 25.979 56.490,26.128 55.446,26.252 54.667 C 26.377 53.887,26.601 52.387,26.752 51.333 C 26.902 50.279,27.107 48.967,27.207 48.417 C 27.307 47.867,27.446 46.742,27.517 45.917 C 27.588 45.092,27.728 43.892,27.828 43.250 C 27.929 42.608,28.089 41.483,28.186 40.750 C 28.443 38.795,28.815 36.283,29.091 34.643 C 29.224 33.850,29.333 32.872,29.333 32.469 C 29.333 32.066,29.446 31.305,29.583 30.777 C 29.721 30.249,29.833 29.661,29.833 29.471 C 29.833 28.734,30.917 26.914,32.009 25.818 C 35.606 22.205,44.165 21.622,46.894 24.804 C 46.998 24.925,47.204 25.158,47.352 25.322 C 47.500 25.486,47.761 25.875,47.933 26.185 C 48.106 26.496,48.328 26.863,48.428 27.000 C 49.255 28.141,49.577 34.068,48.938 36.410 C 48.789 36.956,48.667 37.805,48.667 38.296 C 48.667 38.787,48.591 39.330,48.499 39.503 C 48.406 39.675,48.287 40.402,48.234 41.117 C 48.180 41.832,48.056 42.679,47.958 43.000 C 47.860 43.321,47.723 44.258,47.654 45.083 C 47.585 45.908,47.415 47.408,47.275 48.417 C 47.135 49.425,46.975 50.663,46.919 51.167 C 46.863 51.671,46.713 52.683,46.585 53.417 C 46.031 56.597,45.816 58.171,45.914 58.330 C 46.061 58.567,69.106 58.566,69.253 58.329 C 69.311 58.235,69.393 57.729,69.436 57.204 C 69.479 56.679,69.616 55.725,69.742 55.083 C 69.867 54.442,70.094 53.017,70.246 51.917 C 70.398 50.817,70.601 49.467,70.696 48.917 C 70.792 48.367,70.934 47.354,71.012 46.667 C 71.089 45.979,71.234 44.892,71.332 44.250 C 71.430 43.608,71.589 42.483,71.685 41.750 C 71.781 41.017,71.962 39.817,72.087 39.083 C 72.211 38.350,72.434 36.925,72.582 35.917 C 72.729 34.908,72.959 33.435,73.092 32.643 C 73.225 31.850,73.333 30.852,73.333 30.423 C 73.333 29.995,73.409 29.503,73.501 29.331 C 73.594 29.158,73.713 28.432,73.765 27.717 C 73.818 27.002,73.930 26.229,74.015 26.000 C 74.100 25.771,74.243 24.871,74.332 24.000 C 74.421 23.129,74.612 21.629,74.757 20.667 C 75.570 15.250,74.427 11.138,71.757 9.882 C 71.478 9.751,71.033 9.527,70.768 9.385 C 69.515 8.712,68.866 8.679,56.683 8.673 L 44.949 8.667 41.496 12.083 L 38.043 15.500 34.438 15.500 C 30.990 15.500,30.833 15.486,30.833 15.179 C 30.833 14.744,31.121 12.590,31.432 10.690 C 31.573 9.832,31.648 9.026,31.599 8.898 C 31.456 8.524,8.245 8.555,8.101 8.930 M99.497 9.042 C 99.407 9.248,99.257 10.092,99.162 10.917 C 99.068 11.742,98.926 12.979,98.847 13.667 C 98.768 14.354,98.626 15.367,98.531 15.917 C 98.437 16.467,98.234 17.817,98.080 18.917 C 97.926 20.017,97.695 21.523,97.567 22.263 C 97.438 23.003,97.333 23.965,97.333 24.399 C 97.333 24.833,97.251 25.342,97.151 25.529 C 97.051 25.716,96.904 26.705,96.825 27.726 C 96.745 28.748,96.570 30.296,96.435 31.167 C 95.859 34.894,95.628 36.491,95.495 37.667 C 95.418 38.354,95.276 39.217,95.181 39.583 C 95.086 39.950,95.006 40.649,95.004 41.136 C 95.002 41.623,94.925 42.161,94.834 42.332 C 94.743 42.502,94.597 43.304,94.511 44.112 C 94.164 47.347,93.980 48.782,93.827 49.461 C 93.739 49.852,93.667 50.452,93.667 50.794 C 93.667 51.136,93.558 52.054,93.425 52.833 C 92.933 55.715,92.667 57.535,92.667 58.012 L 92.667 58.502 104.958 58.459 L 117.250 58.417 117.333 57.333 C 117.379 56.737,117.475 56.160,117.546 56.051 C 117.617 55.941,117.745 55.004,117.830 53.967 C 117.915 52.931,118.102 51.333,118.245 50.417 C 118.389 49.500,118.544 48.337,118.592 47.833 C 118.639 47.329,118.782 46.354,118.910 45.667 C 119.255 43.806,119.804 39.910,120.177 36.667 C 120.341 35.248,120.572 33.598,120.914 31.417 C 121.145 29.948,121.246 29.215,121.750 25.333 C 121.984 23.536,122.092 22.771,122.742 18.333 C 122.883 17.371,123.031 16.283,123.072 15.917 C 123.113 15.550,123.221 14.800,123.312 14.250 C 123.691 11.948,124.024 9.006,123.922 8.843 C 123.848 8.722,120.038 8.667,111.737 8.667 L 99.660 8.667 99.497 9.042 M216.042 9.005 C 215.835 9.088,215.660 9.177,215.651 9.203 C 215.642 9.229,215.570 9.925,215.490 10.750 C 215.272 13.010,214.790 16.496,213.975 21.724 C 213.638 23.888,213.302 26.421,213.166 27.833 C 213.091 28.613,212.949 29.550,212.852 29.917 C 212.754 30.283,212.673 30.921,212.671 31.333 C 212.670 31.746,212.558 32.683,212.423 33.417 C 212.289 34.150,212.096 35.387,211.996 36.167 C 211.896 36.946,211.709 38.333,211.580 39.250 C 211.451 40.167,211.226 41.817,211.079 42.917 C 210.932 44.017,210.704 45.517,210.572 46.250 C 210.441 46.983,210.333 47.945,210.333 48.386 C 210.333 48.827,210.261 49.325,210.172 49.491 C 210.083 49.657,209.934 50.533,209.841 51.438 C 209.749 52.343,209.547 54.021,209.393 55.167 C 209.238 56.313,209.106 57.574,209.098 57.970 L 209.083 58.690 221.053 58.728 C 234.729 58.770,233.587 58.907,233.712 57.212 C 233.792 56.137,234.475 50.807,234.828 48.500 C 234.920 47.904,235.107 46.667,235.244 45.750 C 235.381 44.833,235.580 43.558,235.686 42.917 C 235.792 42.275,235.941 41.188,236.016 40.500 C 236.214 38.707,236.469 36.689,236.762 34.583 C 236.902 33.575,237.094 32.188,237.187 31.500 C 237.471 29.418,238.157 27.240,238.620 26.950 C 238.737 26.877,238.833 26.686,238.833 26.527 C 238.833 24.549,246.496 22.255,249.253 23.407 C 249.595 23.550,250.020 23.667,250.198 23.667 C 250.801 23.667,252.743 25.370,253.127 26.235 C 253.876 27.924,254.119 31.623,253.592 33.311 C 253.459 33.736,253.269 34.908,253.168 35.917 C 253.068 36.925,252.911 38.425,252.821 39.250 C 252.730 40.075,252.585 41.425,252.499 42.250 C 252.413 43.075,252.189 44.950,252.000 46.417 C 251.811 47.883,251.586 49.931,251.499 50.967 C 251.413 52.004,251.296 52.925,251.240 53.016 C 251.185 53.106,251.072 53.946,250.990 54.882 C 250.908 55.818,250.777 56.976,250.700 57.456 C 250.623 57.936,250.616 58.418,250.683 58.527 C 250.776 58.677,253.580 58.728,262.244 58.738 L 273.681 58.750 273.771 58.333 C 273.820 58.104,273.925 57.729,274.004 57.500 C 274.083 57.271,274.227 56.371,274.323 55.500 C 274.419 54.629,274.616 53.204,274.760 52.333 C 274.905 51.462,275.085 50.262,275.160 49.667 C 275.346 48.200,276.123 43.675,276.423 42.309 C 276.557 41.701,276.667 40.814,276.667 40.340 C 276.667 39.866,276.734 39.352,276.816 39.197 C 276.898 39.043,277.049 38.279,277.150 37.500 C 277.645 33.692,278.032 31.563,278.329 31.009 C 278.423 30.833,278.500 30.473,278.500 30.209 C 278.500 29.946,278.610 29.585,278.745 29.407 C 278.879 29.229,278.992 28.971,278.995 28.833 C 279.040 26.656,282.637 23.502,285.500 23.130 C 289.481 22.611,292.286 23.385,293.795 25.417 C 295.022 27.068,295.591 30.097,295.171 32.731 C 295.081 33.291,294.893 34.436,294.754 35.274 C 294.614 36.112,294.500 37.148,294.500 37.577 C 294.500 38.005,294.425 38.495,294.334 38.665 C 294.243 38.836,294.096 39.637,294.008 40.446 C 293.920 41.255,293.733 42.742,293.592 43.750 C 293.451 44.758,293.268 46.221,293.185 47.000 C 293.102 47.779,292.955 48.867,292.858 49.417 C 292.762 49.967,292.563 51.279,292.416 52.333 C 292.269 53.387,292.036 54.932,291.897 55.766 C 291.759 56.600,291.669 57.613,291.698 58.016 L 291.750 58.750 303.054 58.750 C 316.184 58.750,314.745 59.028,314.990 56.442 C 315.084 55.454,315.204 54.575,315.257 54.488 C 315.311 54.402,315.357 54.013,315.360 53.624 C 315.363 53.235,315.470 52.467,315.597 51.917 C 315.724 51.367,315.830 50.579,315.832 50.167 C 315.834 49.754,315.912 49.139,316.006 48.801 C 316.173 48.201,316.250 47.721,316.739 44.250 C 316.869 43.333,317.053 42.283,317.150 41.917 C 317.246 41.550,317.327 40.753,317.329 40.145 C 317.332 39.538,317.446 38.771,317.583 38.442 C 317.721 38.113,317.833 37.543,317.833 37.175 C 317.833 36.497,317.997 35.230,318.416 32.667 C 318.544 31.887,318.768 30.387,318.915 29.333 C 319.269 26.792,319.636 24.331,319.862 23.000 C 319.962 22.404,320.103 21.354,320.175 20.667 C 320.247 19.979,320.390 19.023,320.494 18.542 C 320.632 17.896,320.633 17.437,320.496 16.792 C 320.394 16.310,320.256 15.542,320.188 15.083 C 320.121 14.625,319.988 14.100,319.891 13.917 C 319.795 13.733,319.574 13.290,319.400 12.930 C 318.664 11.408,316.729 9.750,315.083 9.232 C 314.147 8.937,313.421 8.917,303.750 8.917 L 293.417 8.917 292.000 9.400 C 289.575 10.228,288.368 11.406,287.026 14.250 C 286.724 14.892,286.369 15.629,286.238 15.889 C 286.107 16.148,285.998 16.486,285.995 16.639 C 285.992 16.791,285.879 17.062,285.745 17.240 C 285.610 17.418,285.500 17.697,285.500 17.859 C 285.500 18.420,284.940 18.509,281.712 18.462 L 278.583 18.417 278.547 17.417 C 278.389 13.077,277.413 10.389,275.667 9.487 C 274.602 8.936,255.741 8.525,252.947 8.991 C 250.573 9.387,248.742 10.952,247.184 13.917 C 246.991 14.283,246.570 15.033,246.248 15.583 C 245.926 16.133,245.463 16.979,245.219 17.462 C 244.681 18.529,244.695 18.525,241.750 18.465 L 239.417 18.417 239.458 17.917 C 239.645 15.648,239.844 13.499,239.992 12.167 C 240.089 11.296,240.186 10.208,240.209 9.750 L 240.250 8.917 228.333 8.885 C 221.499 8.867,216.257 8.918,216.042 9.005 " stroke="none" fill="#6c6c6c" fill-rule="evenodd" data-index="3" style="visibility: visible; fill: rgb(255, 255, 255); opacity: 1;"></path><path id="path4" d="M365.188 4.846 C 364.971 4.933,364.146 5.074,363.355 5.160 C 362.039 5.302,360.457 5.625,359.833 5.877 C 359.696 5.932,358.996 6.170,358.277 6.404 C 356.606 6.949,353.858 8.285,352.618 9.156 C 352.086 9.528,351.589 9.833,351.513 9.833 C 351.437 9.833,351.271 9.957,351.146 10.109 C 351.020 10.260,350.542 10.666,350.084 11.011 C 347.903 12.651,343.167 18.352,343.167 19.335 C 343.167 19.479,342.645 20.522,342.500 20.667 C 342.454 20.712,342.240 21.162,342.024 21.667 C 341.240 23.500,340.840 24.764,340.837 25.425 C 340.835 25.796,340.740 26.193,340.626 26.307 C 340.512 26.421,340.365 27.017,340.299 27.632 C 340.233 28.247,340.097 29.425,339.997 30.250 C 339.796 31.913,339.928 36.984,340.179 37.242 C 340.264 37.329,340.333 37.751,340.333 38.180 C 340.333 38.669,340.426 39.036,340.583 39.167 C 340.721 39.281,340.836 39.646,340.839 39.979 C 340.842 40.311,340.952 40.771,341.083 41.000 C 341.214 41.229,341.327 41.604,341.333 41.833 C 341.339 42.063,341.454 42.396,341.589 42.574 C 341.723 42.751,341.833 43.066,341.833 43.272 C 341.833 43.478,341.903 43.690,341.987 43.742 C 342.072 43.794,342.190 44.061,342.250 44.335 C 342.311 44.609,342.429 44.833,342.513 44.833 C 342.598 44.833,342.667 44.974,342.667 45.146 C 342.667 45.318,342.779 45.553,342.917 45.667 C 343.054 45.781,343.167 45.990,343.167 46.131 C 343.167 46.388,344.057 47.890,344.455 48.304 C 344.571 48.425,344.667 48.613,344.667 48.722 C 344.667 48.831,344.854 49.122,345.083 49.369 C 345.313 49.617,345.500 49.892,345.500 49.981 C 345.500 50.070,345.763 50.422,346.084 50.762 C 346.406 51.103,346.873 51.652,347.122 51.983 C 347.688 52.732,350.124 55.164,350.646 55.500 C 350.859 55.637,351.270 55.955,351.559 56.206 C 351.847 56.456,352.163 56.663,352.260 56.664 C 352.358 56.665,352.653 56.892,352.917 57.167 C 353.180 57.442,353.525 57.667,353.684 57.667 C 353.843 57.667,353.997 57.731,354.028 57.809 C 354.153 58.128,358.766 60.496,359.280 60.505 C 359.447 60.508,359.729 60.621,359.907 60.755 C 360.085 60.890,360.437 61.000,360.689 61.000 C 360.941 61.000,361.193 61.075,361.250 61.167 C 361.307 61.258,361.480 61.325,361.635 61.314 C 361.889 61.297,361.888 61.287,361.625 61.218 C 361.465 61.177,361.333 61.073,361.333 60.988 C 361.333 60.903,361.123 60.833,360.865 60.833 C 360.608 60.833,360.251 60.723,360.074 60.589 C 359.896 60.454,359.590 60.342,359.395 60.339 C 359.200 60.336,358.947 60.221,358.833 60.083 C 358.719 59.946,358.419 59.833,358.167 59.833 C 357.914 59.833,357.614 59.721,357.500 59.583 C 357.386 59.446,357.184 59.333,357.051 59.333 C 356.918 59.333,356.697 59.221,356.560 59.083 C 356.422 58.946,356.165 58.833,355.988 58.833 C 355.811 58.833,355.667 58.772,355.667 58.696 C 355.667 58.621,355.348 58.393,354.958 58.190 C 353.935 57.657,353.670 57.486,352.833 56.825 C 352.421 56.499,351.821 56.073,351.500 55.878 C 350.231 55.105,344.833 49.210,344.833 48.597 C 344.833 48.557,344.544 48.087,344.191 47.553 C 343.447 46.429,342.333 44.170,342.333 43.784 C 342.333 43.639,342.258 43.473,342.167 43.417 C 342.075 43.360,342.000 43.173,342.000 43.002 C 342.000 42.831,341.900 42.591,341.778 42.469 C 341.656 42.347,341.505 41.876,341.443 41.422 C 341.381 40.968,341.256 40.523,341.165 40.432 C 341.074 40.341,341.000 40.127,341.000 39.956 C 341.000 39.786,340.896 39.294,340.769 38.865 C 340.163 36.820,339.868 32.765,340.159 30.500 C 340.260 29.721,340.410 28.530,340.493 27.853 C 340.576 27.176,340.724 26.543,340.822 26.445 C 340.920 26.347,341.000 26.080,341.000 25.853 C 341.000 25.342,341.498 23.475,341.691 23.258 C 341.769 23.171,341.833 22.937,341.833 22.737 C 341.833 22.537,341.946 22.281,342.083 22.167 C 342.221 22.053,342.333 21.854,342.333 21.726 C 342.333 21.598,342.558 21.072,342.833 20.557 C 343.108 20.041,343.333 19.566,343.333 19.499 C 343.333 19.287,345.946 15.428,346.313 15.099 C 346.507 14.925,346.667 14.717,346.667 14.639 C 346.667 14.469,349.644 11.568,350.212 11.183 C 350.429 11.037,350.826 10.710,351.093 10.458 C 351.361 10.206,351.632 10.000,351.696 10.000 C 351.760 10.000,352.305 9.663,352.908 9.250 C 353.510 8.837,354.106 8.500,354.231 8.500 C 354.357 8.500,354.553 8.387,354.667 8.250 C 354.781 8.112,354.971 8.000,355.090 8.000 C 355.293 8.000,356.317 7.516,356.500 7.333 C 356.609 7.224,357.615 6.841,358.250 6.667 C 358.915 6.484,359.849 6.156,360.201 5.981 C 360.357 5.903,360.807 5.795,361.201 5.740 C 361.595 5.685,362.067 5.576,362.250 5.498 C 362.433 5.419,363.205 5.325,363.964 5.288 C 364.724 5.251,365.433 5.134,365.539 5.027 C 365.781 4.785,370.357 4.757,370.596 4.996 C 370.686 5.086,371.432 5.208,372.255 5.269 C 373.077 5.329,373.829 5.440,373.925 5.515 C 374.021 5.591,374.434 5.703,374.842 5.765 C 375.250 5.828,375.658 5.934,375.750 6.002 C 375.842 6.069,376.142 6.163,376.417 6.210 C 377.008 6.311,377.897 6.612,378.555 6.935 C 378.815 7.062,379.127 7.167,379.250 7.167 C 379.373 7.167,379.685 7.275,379.945 7.409 C 380.204 7.542,380.769 7.809,381.199 8.002 C 381.629 8.196,382.154 8.489,382.366 8.655 C 382.577 8.820,383.199 9.194,383.748 9.486 C 384.297 9.779,384.807 10.126,384.882 10.259 C 384.956 10.391,385.123 10.500,385.253 10.500 C 385.382 10.500,385.705 10.706,385.968 10.958 C 386.232 11.210,386.949 11.826,387.562 12.327 C 388.799 13.338,391.833 16.632,391.833 16.964 C 391.833 17.035,392.058 17.339,392.333 17.640 C 392.608 17.941,392.833 18.253,392.833 18.333 C 392.833 18.413,393.171 18.972,393.583 19.574 C 393.996 20.177,394.333 20.775,394.333 20.904 C 394.333 21.033,394.390 21.164,394.458 21.194 C 394.613 21.263,395.167 22.301,395.167 22.523 C 395.167 22.612,395.392 23.139,395.667 23.693 C 395.942 24.247,396.169 24.862,396.172 25.059 C 396.175 25.256,396.287 25.562,396.422 25.740 C 396.557 25.918,396.667 26.334,396.667 26.665 C 396.667 26.996,396.746 27.346,396.843 27.443 C 396.940 27.540,397.063 28.061,397.116 28.601 C 397.168 29.141,397.267 29.658,397.334 29.750 C 397.402 29.842,397.509 30.892,397.572 32.083 C 397.635 33.275,397.698 34.362,397.712 34.500 C 397.782 35.195,397.437 39.500,397.312 39.500 C 397.232 39.500,397.167 39.716,397.167 39.981 C 397.167 40.245,397.058 40.827,396.925 41.273 C 396.791 41.718,396.638 42.365,396.584 42.708 C 396.529 43.052,396.413 43.333,396.326 43.333 C 396.238 43.333,396.164 43.502,396.161 43.708 C 396.158 43.915,396.046 44.229,395.911 44.407 C 395.777 44.585,395.667 44.894,395.667 45.095 C 395.667 45.295,395.554 45.553,395.417 45.667 C 395.279 45.781,395.167 45.959,395.167 46.062 C 395.167 46.311,394.119 48.401,393.958 48.472 C 393.890 48.503,393.833 48.623,393.833 48.739 C 393.833 48.855,393.620 49.244,393.360 49.603 C 393.100 49.963,392.856 50.340,392.818 50.442 C 392.781 50.543,392.262 51.170,391.667 51.833 C 391.071 52.497,390.515 53.163,390.431 53.312 C 390.240 53.650,388.699 55.164,388.536 55.173 C 388.471 55.177,387.968 55.589,387.420 56.090 C 386.871 56.590,386.367 57.000,386.300 57.000 C 386.166 57.000,384.724 57.961,384.379 58.279 C 384.263 58.387,383.867 58.608,383.500 58.770 C 383.133 58.932,382.833 59.125,382.833 59.199 C 382.833 59.273,382.698 59.333,382.532 59.333 C 382.366 59.333,382.085 59.443,381.907 59.578 C 381.729 59.713,381.430 59.825,381.242 59.828 C 381.054 59.831,380.812 59.921,380.705 60.028 C 380.454 60.279,379.402 60.678,378.708 60.786 C 378.410 60.832,378.167 60.932,378.167 61.008 C 378.167 61.084,377.810 61.193,377.375 61.251 C 376.940 61.309,376.433 61.420,376.250 61.498 C 376.067 61.576,375.510 61.682,375.013 61.732 C 374.516 61.783,374.032 61.901,373.938 61.996 C 373.706 62.227,365.795 62.228,365.564 61.997 C 365.471 61.904,364.912 61.759,364.322 61.674 C 363.733 61.589,363.025 61.474,362.750 61.418 L 362.250 61.315 362.667 61.568 C 362.896 61.708,363.355 61.824,363.687 61.827 C 364.020 61.831,364.620 61.957,365.021 62.108 C 366.114 62.520,373.228 62.527,374.381 62.117 C 374.819 61.961,375.405 61.833,375.683 61.833 C 376.152 61.833,377.478 61.487,378.250 61.164 C 378.433 61.087,378.864 60.978,379.207 60.921 C 379.751 60.832,381.069 60.277,381.833 59.815 C 381.971 59.732,382.196 59.622,382.333 59.570 C 382.471 59.518,382.696 59.406,382.833 59.320 C 382.971 59.235,383.177 59.128,383.292 59.082 C 383.938 58.827,383.982 58.801,385.750 57.643 C 386.392 57.223,387.127 56.681,387.384 56.439 C 387.640 56.198,387.910 56.000,387.983 56.000 C 388.200 56.000,391.182 52.966,391.587 52.333 C 391.792 52.012,392.192 51.525,392.475 51.250 C 392.759 50.975,392.993 50.627,392.995 50.476 C 392.998 50.326,393.096 50.165,393.213 50.120 C 393.331 50.075,393.574 49.749,393.755 49.394 C 393.936 49.040,394.121 48.712,394.167 48.667 C 394.467 48.367,395.333 46.571,395.333 46.249 C 395.333 46.135,395.446 45.947,395.583 45.833 C 395.721 45.719,395.836 45.466,395.839 45.271 C 395.842 45.076,395.954 44.771,396.089 44.593 C 396.223 44.415,396.333 44.111,396.333 43.918 C 396.333 43.725,396.417 43.483,396.520 43.380 C 396.701 43.199,396.801 42.831,397.234 40.750 C 397.348 40.200,397.488 39.637,397.545 39.500 C 397.806 38.871,398.118 34.532,397.982 33.417 C 397.904 32.775,397.763 31.537,397.670 30.667 C 397.576 29.796,397.391 28.633,397.258 28.083 C 397.125 27.533,396.933 26.746,396.832 26.333 C 396.730 25.921,396.577 25.512,396.490 25.425 C 396.404 25.338,396.333 25.071,396.333 24.832 C 396.333 24.593,396.223 24.251,396.089 24.074 C 395.954 23.896,395.842 23.643,395.839 23.513 C 395.824 22.842,392.778 17.541,391.751 16.396 C 391.659 16.294,391.021 15.556,390.333 14.758 C 389.646 13.959,388.708 12.986,388.250 12.595 C 386.790 11.350,385.508 10.333,385.399 10.333 C 385.341 10.333,385.038 10.108,384.725 9.833 C 384.411 9.558,384.078 9.333,383.983 9.333 C 383.888 9.333,383.572 9.153,383.281 8.933 C 382.989 8.713,382.262 8.295,381.667 8.003 C 381.071 7.711,380.371 7.366,380.111 7.236 C 379.852 7.106,379.511 7.000,379.353 7.000 C 379.196 7.000,378.995 6.931,378.908 6.847 C 378.678 6.623,376.825 6.000,376.391 6.000 C 376.187 6.000,375.973 5.925,375.917 5.833 C 375.860 5.742,375.574 5.666,375.282 5.666 C 374.989 5.665,374.535 5.553,374.273 5.416 C 374.010 5.279,373.507 5.167,373.156 5.167 C 372.804 5.167,372.084 5.054,371.556 4.917 C 370.465 4.632,365.850 4.581,365.188 4.846 M160.458 8.460 C 157.181 8.485,154.500 8.560,154.500 8.627 C 154.500 8.695,157.294 8.712,160.708 8.667 C 164.123 8.621,173.029 8.583,180.500 8.583 L 194.083 8.583 194.042 8.968 C 194.018 9.190,194.071 9.309,194.167 9.250 C 194.440 9.081,194.355 8.529,194.042 8.436 C 193.763 8.353,172.999 8.368,160.458 8.460 M7.931 9.042 C 7.885 9.340,7.804 9.846,7.749 10.167 C 7.500 11.644,7.498 11.921,7.742 11.083 C 7.876 10.625,7.990 9.987,7.995 9.667 C 8.013 8.595,7.205 8.660,19.927 8.707 L 31.583 8.750 31.577 9.250 C 31.574 9.525,31.518 10.110,31.454 10.550 C 31.390 10.990,31.400 11.312,31.477 11.264 C 31.651 11.156,31.856 9.086,31.726 8.748 C 31.643 8.532,30.119 8.500,19.823 8.500 L 8.015 8.500 7.931 9.042 M44.833 8.625 C 44.833 8.694,50.301 8.750,56.984 8.750 C 63.667 8.750,69.048 8.695,68.942 8.628 C 68.688 8.466,44.833 8.463,44.833 8.625 M99.329 8.928 C 99.240 9.163,99.176 9.594,99.188 9.886 C 99.206 10.348,99.223 10.325,99.324 9.705 C 99.388 9.314,99.514 8.919,99.604 8.829 C 99.710 8.723,104.063 8.680,111.835 8.707 L 123.902 8.750 124.005 9.167 L 124.108 9.583 124.231 9.210 C 124.469 8.492,124.606 8.500,111.819 8.500 L 99.492 8.500 99.329 8.928 M239.757 8.656 C 239.696 8.753,239.766 8.833,239.912 8.833 C 240.058 8.833,240.245 9.002,240.328 9.208 C 240.426 9.452,240.483 9.491,240.489 9.317 C 240.504 8.962,239.903 8.419,239.757 8.656 M294.667 8.667 C 294.494 8.778,294.828 8.828,295.750 8.828 C 296.672 8.828,297.006 8.778,296.833 8.667 C 296.696 8.578,296.208 8.505,295.750 8.505 C 295.292 8.505,294.804 8.578,294.667 8.667 M43.250 10.103 C 41.666 11.789,41.677 11.825,43.297 10.254 C 44.050 9.523,44.667 8.904,44.667 8.879 C 44.667 8.679,44.249 9.040,43.250 10.103 M69.750 8.996 C 70.518 9.193,71.123 9.461,71.244 9.656 C 71.304 9.754,71.428 9.833,71.520 9.833 C 71.829 9.833,71.482 9.498,70.829 9.164 C 70.472 8.982,69.971 8.841,69.715 8.850 L 69.250 8.867 69.750 8.996 M152.709 9.821 C 151.238 10.843,150.844 11.170,151.476 10.841 C 151.998 10.569,154.333 8.981,154.333 8.899 C 154.333 8.735,153.988 8.931,152.709 9.821 M215.562 9.078 C 215.511 9.212,215.507 9.419,215.554 9.536 C 215.608 9.668,215.645 9.637,215.654 9.453 C 215.661 9.290,215.835 9.088,216.042 9.005 L 216.417 8.854 216.036 8.844 C 215.827 8.838,215.614 8.943,215.562 9.078 M251.875 9.005 C 251.669 9.088,251.500 9.201,251.500 9.256 C 251.500 9.311,251.669 9.300,251.875 9.231 C 252.081 9.162,252.550 9.054,252.917 8.990 L 253.583 8.875 252.917 8.865 C 252.550 8.859,252.081 8.922,251.875 9.005 M271.583 8.990 C 273.417 9.042,275.029 9.154,275.167 9.240 C 275.383 9.376,275.385 9.359,275.188 9.115 C 274.985 8.865,274.579 8.837,271.605 8.865 L 268.250 8.898 271.583 8.990 M292.542 9.005 C 292.335 9.088,292.167 9.201,292.167 9.256 C 292.167 9.311,292.335 9.300,292.542 9.231 C 292.748 9.162,293.217 9.054,293.583 8.990 L 294.250 8.875 293.583 8.865 C 293.217 8.859,292.748 8.922,292.542 9.005 M314.000 9.005 C 314.412 9.074,314.938 9.178,315.167 9.234 C 315.516 9.320,315.502 9.297,315.083 9.093 C 314.808 8.958,314.283 8.855,313.917 8.863 L 313.250 8.878 314.000 9.005 M275.917 9.610 C 276.192 9.755,276.585 10.063,276.792 10.296 C 276.998 10.528,277.167 10.637,277.167 10.538 C 277.167 10.284,275.977 9.332,275.670 9.340 C 275.531 9.344,275.642 9.465,275.917 9.610 M291.000 9.583 C 290.481 9.880,290.729 9.880,291.500 9.583 C 291.882 9.436,291.968 9.356,291.750 9.352 C 291.567 9.348,291.229 9.452,291.000 9.583 M193.853 9.758 C 193.842 9.946,193.759 10.190,193.667 10.301 C 193.576 10.411,193.621 10.397,193.767 10.270 C 193.913 10.143,193.996 9.899,193.952 9.728 C 193.880 9.447,193.870 9.450,193.853 9.758 M240.114 10.958 C 240.057 11.669,239.966 12.625,239.911 13.083 C 239.829 13.768,239.847 13.861,240.010 13.602 C 240.201 13.300,240.467 9.667,240.298 9.667 C 240.253 9.667,240.170 10.248,240.114 10.958 M72.440 10.375 C 72.781 10.673,73.345 11.367,73.695 11.917 C 74.044 12.467,74.331 12.825,74.332 12.713 C 74.335 12.238,72.379 9.833,71.989 9.833 C 71.897 9.833,72.100 10.077,72.440 10.375 M123.693 11.304 C 123.570 12.159,123.507 12.896,123.553 12.942 C 123.704 13.093,124.021 11.203,123.968 10.467 C 123.926 9.879,123.876 10.030,123.693 11.304 M249.339 10.616 C 248.459 11.522,247.608 12.664,247.725 12.781 C 247.771 12.827,248.020 12.540,248.279 12.144 C 248.538 11.747,249.123 11.066,249.578 10.628 C 250.034 10.191,250.334 9.837,250.245 9.842 C 250.156 9.846,249.749 10.195,249.339 10.616 M290.160 9.958 C 290.156 10.027,289.754 10.380,289.268 10.743 C 288.781 11.106,288.246 11.631,288.079 11.910 C 287.457 12.950,286.495 14.884,286.565 14.954 C 286.605 14.994,286.959 14.377,287.352 13.583 C 288.058 12.160,288.860 11.164,290.000 10.294 C 290.321 10.049,290.490 9.845,290.375 9.841 C 290.260 9.837,290.164 9.890,290.160 9.958 M317.883 11.042 C 318.548 11.706,319.214 12.512,319.362 12.833 C 319.510 13.154,319.727 13.623,319.844 13.875 C 319.961 14.127,320.086 14.303,320.123 14.266 C 320.160 14.229,320.121 14.061,320.036 13.891 C 319.952 13.722,319.703 13.208,319.483 12.750 C 319.102 11.955,317.176 9.833,316.835 9.833 C 316.746 9.833,317.218 10.377,317.883 11.042 M277.172 10.938 C 277.183 11.233,277.667 11.753,277.667 11.469 C 277.667 11.325,277.554 11.114,277.417 11.000 C 277.279 10.886,277.169 10.858,277.172 10.938 M98.924 11.458 C 98.862 11.619,98.787 12.350,98.757 13.083 C 98.704 14.390,98.705 14.397,98.842 13.417 C 98.919 12.867,99.031 12.135,99.092 11.792 C 99.208 11.139,99.116 10.957,98.924 11.458 M150.474 11.461 C 149.906 11.836,146.000 15.805,146.000 16.008 C 146.000 16.092,146.881 15.252,147.958 14.139 C 149.035 13.027,150.209 11.903,150.567 11.642 C 151.271 11.127,151.197 10.984,150.474 11.461 M215.260 11.451 C 215.200 11.607,215.125 12.301,215.093 12.992 C 215.038 14.191,215.042 14.207,215.176 13.333 C 215.253 12.829,215.366 12.135,215.427 11.792 C 215.541 11.143,215.450 10.957,215.260 11.451 M31.114 12.833 C 31.039 13.521,30.945 14.271,30.905 14.500 C 30.847 14.829,30.886 14.799,31.090 14.358 C 31.262 13.985,31.332 13.433,31.299 12.692 L 31.250 11.583 31.114 12.833 M192.441 12.608 C 192.190 13.120,192.013 13.568,192.048 13.604 C 192.083 13.639,192.322 13.252,192.578 12.745 C 192.835 12.238,193.012 11.790,192.972 11.749 C 192.931 11.709,192.693 12.095,192.441 12.608 M277.748 12.083 C 277.820 12.267,277.941 12.679,278.017 13.000 C 278.149 13.553,278.152 13.546,278.091 12.855 C 278.055 12.454,277.934 12.042,277.822 11.938 C 277.664 11.792,277.647 11.825,277.748 12.083 M7.184 13.767 C 7.058 14.417,6.997 15.055,7.048 15.183 C 7.099 15.312,7.146 15.205,7.154 14.947 C 7.161 14.689,7.246 14.330,7.343 14.149 C 7.440 13.967,7.495 13.541,7.466 13.201 C 7.419 12.662,7.383 12.734,7.184 13.767 M39.380 13.988 L 38.009 15.301 34.488 15.306 C 32.551 15.309,30.924 15.354,30.872 15.406 C 30.820 15.458,32.406 15.500,34.396 15.500 L 38.014 15.500 39.466 14.088 C 40.264 13.311,40.879 12.676,40.833 12.675 C 40.787 12.675,40.133 13.265,39.380 13.988 M74.333 13.113 C 74.333 13.197,74.402 13.338,74.486 13.425 C 74.570 13.512,74.672 13.771,74.713 14.000 C 74.778 14.362,74.791 14.349,74.811 13.895 C 74.823 13.609,74.721 13.281,74.583 13.167 C 74.446 13.053,74.333 13.028,74.333 13.113 M247.338 13.244 C 247.226 13.379,247.164 13.575,247.199 13.680 C 247.234 13.785,247.352 13.675,247.461 13.436 C 247.684 12.947,247.640 12.880,247.338 13.244 M278.279 14.417 C 278.334 14.875,278.425 15.963,278.481 16.833 L 278.583 18.417 281.712 18.462 C 284.745 18.506,285.500 18.410,285.500 17.982 C 285.500 17.887,285.382 17.927,285.238 18.071 C 285.018 18.291,284.467 18.333,281.821 18.333 L 278.667 18.333 278.659 17.042 C 278.655 16.331,278.545 15.262,278.415 14.667 C 278.214 13.749,278.194 13.710,278.279 14.417 M191.527 14.484 C 191.345 14.859,191.249 15.167,191.314 15.167 C 191.454 15.167,192.018 13.963,191.923 13.867 C 191.887 13.831,191.708 14.108,191.527 14.484 M123.277 14.583 C 123.205 14.950,123.117 15.662,123.080 16.167 L 123.013 17.083 123.259 15.917 C 123.394 15.275,123.482 14.563,123.456 14.333 C 123.417 14.007,123.379 14.061,123.277 14.583 M246.707 14.458 C 246.534 14.710,246.221 15.254,246.011 15.667 C 245.802 16.079,245.582 16.454,245.523 16.500 C 245.322 16.658,244.780 17.835,244.869 17.924 C 244.917 17.973,245.115 17.691,245.308 17.298 C 245.704 16.492,246.510 15.060,246.927 14.424 C 247.303 13.850,247.104 13.881,246.707 14.458 M74.955 15.083 C 75.121 15.945,75.116 18.328,74.946 19.500 C 74.834 20.273,74.846 20.364,75.025 20.083 C 75.322 19.618,75.332 15.213,75.038 14.750 C 74.856 14.462,74.844 14.508,74.955 15.083 M214.774 14.779 C 214.725 14.946,214.647 15.721,214.602 16.500 C 214.518 17.963,214.537 17.917,214.858 15.871 C 215.034 14.751,214.982 14.074,214.774 14.779 M98.409 15.409 C 98.345 15.834,98.331 16.220,98.377 16.265 C 98.422 16.311,98.512 16.001,98.576 15.576 C 98.640 15.151,98.654 14.765,98.608 14.719 C 98.563 14.674,98.473 14.984,98.409 15.409 M172.417 14.937 L 171.917 15.180 172.417 15.060 C 173.069 14.904,177.770 14.904,178.417 15.061 C 178.903 15.179,178.902 15.176,178.356 14.925 C 177.583 14.569,173.153 14.579,172.417 14.937 M239.607 16.042 C 239.555 16.798,239.491 17.642,239.464 17.917 L 239.417 18.417 242.000 18.426 L 244.583 18.435 242.167 18.343 L 239.750 18.250 239.811 16.458 C 239.883 14.348,239.742 14.061,239.607 16.042 M320.238 15.250 C 320.376 16.514,320.671 17.428,320.578 16.307 C 320.536 15.789,320.425 15.189,320.333 14.974 C 320.192 14.646,320.177 14.691,320.238 15.250 M170.926 15.422 C 170.510 15.737,170.665 15.735,171.273 15.418 C 171.535 15.281,171.637 15.171,171.500 15.173 C 171.362 15.175,171.104 15.287,170.926 15.422 M179.750 15.421 C 180.618 15.734,181.082 15.725,180.356 15.410 C 180.047 15.276,179.635 15.170,179.439 15.174 C 179.209 15.179,179.319 15.266,179.750 15.421 M286.210 15.618 C 286.096 15.861,286.034 16.090,286.072 16.127 C 286.172 16.227,286.531 15.508,286.469 15.330 C 286.440 15.246,286.324 15.376,286.210 15.618 M190.857 15.773 C 190.657 16.220,190.661 16.232,190.924 15.975 C 191.079 15.823,191.175 15.609,191.138 15.497 C 191.101 15.386,190.974 15.510,190.857 15.773 M169.608 16.162 C 168.956 16.655,167.855 18.004,168.111 17.996 C 168.187 17.993,168.428 17.702,168.646 17.349 C 168.864 16.996,169.370 16.499,169.771 16.246 C 170.172 15.992,170.500 15.758,170.500 15.726 C 170.500 15.569,170.192 15.720,169.608 16.162 M181.500 15.917 C 181.614 16.054,181.905 16.158,182.145 16.147 C 182.490 16.132,182.513 16.111,182.250 16.048 C 182.067 16.004,181.845 15.900,181.758 15.817 C 181.494 15.566,181.278 15.649,181.500 15.917 M182.979 16.385 C 183.113 16.550,183.423 16.660,183.729 16.650 L 184.250 16.633 183.735 16.510 C 183.452 16.442,183.115 16.323,182.985 16.245 C 182.785 16.124,182.784 16.144,182.979 16.385 M6.753 16.618 C 6.686 16.782,6.608 17.592,6.578 18.417 C 6.549 19.242,6.556 19.692,6.595 19.417 C 6.634 19.142,6.752 18.371,6.857 17.705 C 7.044 16.521,6.996 16.020,6.753 16.618 M145.164 17.375 C 144.801 17.948,144.502 18.504,144.502 18.611 C 144.501 18.718,144.444 18.831,144.375 18.861 C 144.188 18.944,143.600 20.155,143.699 20.254 C 143.746 20.301,144.032 19.832,144.335 19.212 C 144.638 18.591,145.086 17.783,145.331 17.417 C 145.945 16.498,146.035 16.333,145.922 16.333 C 145.869 16.333,145.527 16.802,145.164 17.375 M190.357 16.773 C 190.157 17.220,190.161 17.232,190.424 16.975 C 190.579 16.823,190.675 16.609,190.638 16.497 C 190.601 16.386,190.474 16.510,190.357 16.773 M285.708 16.785 C 285.418 17.410,285.448 17.648,285.762 17.201 C 285.906 16.995,285.999 16.717,285.970 16.582 C 285.936 16.425,285.842 16.497,285.708 16.785 M98.126 17.333 C 98.066 17.837,97.905 19.000,97.769 19.917 C 97.396 22.421,97.297 23.499,97.569 22.083 C 98.012 19.786,98.366 17.243,98.302 16.833 C 98.261 16.573,98.195 16.761,98.126 17.333 M184.333 16.840 C 184.333 16.920,184.597 17.034,184.919 17.095 C 185.240 17.155,185.545 17.271,185.595 17.352 C 185.645 17.434,185.807 17.500,185.954 17.500 C 186.361 17.500,186.131 17.353,185.188 17.008 C 184.718 16.836,184.333 16.761,184.333 16.840 M122.686 18.667 C 122.561 19.446,122.497 20.233,122.544 20.417 C 122.601 20.642,122.634 20.578,122.647 20.217 C 122.658 19.923,122.747 19.307,122.846 18.848 C 122.944 18.389,123.000 17.841,122.969 17.631 C 122.938 17.422,122.811 17.887,122.686 18.667 M189.863 17.681 C 189.742 17.874,189.676 18.064,189.715 18.104 C 189.830 18.219,190.203 17.693,190.140 17.504 C 190.108 17.408,189.984 17.488,189.863 17.681 M186.593 17.745 C 186.771 17.879,186.992 17.989,187.083 17.989 C 187.175 17.989,187.104 17.879,186.926 17.745 C 186.749 17.610,186.528 17.500,186.436 17.500 C 186.345 17.500,186.415 17.610,186.593 17.745 M187.593 18.245 C 187.771 18.379,188.029 18.491,188.167 18.494 C 188.304 18.496,188.202 18.386,187.939 18.249 C 187.331 17.932,187.177 17.930,187.593 18.245 M214.242 18.742 C 214.179 19.168,214.164 19.553,214.210 19.599 C 214.256 19.645,214.345 19.334,214.409 18.909 C 214.473 18.484,214.488 18.099,214.442 18.053 C 214.396 18.007,214.306 18.317,214.242 18.742 M167.690 18.606 C 167.490 19.053,167.494 19.066,167.757 18.808 C 167.912 18.657,168.008 18.442,167.971 18.331 C 167.934 18.220,167.808 18.344,167.690 18.606 M320.447 18.750 C 320.376 19.117,320.288 19.754,320.251 20.167 L 320.183 20.917 320.424 20.000 C 320.557 19.496,320.646 18.858,320.621 18.583 C 320.580 18.117,320.568 18.128,320.447 18.750 M189.432 18.602 C 189.362 18.787,189.195 18.846,188.902 18.790 C 188.616 18.735,188.530 18.763,188.642 18.875 C 188.875 19.108,189.667 18.880,189.667 18.580 C 189.667 18.256,189.561 18.266,189.432 18.602 M167.163 20.435 C 166.959 21.520,167.016 23.231,167.282 23.948 C 167.361 24.163,167.419 23.290,167.422 21.823 C 167.427 18.949,167.435 18.993,167.163 20.435 M213.965 20.667 C 213.671 22.992,213.662 23.293,213.922 22.083 C 214.059 21.442,214.151 20.654,214.126 20.333 C 214.088 19.849,214.061 19.905,213.965 20.667 M6.276 20.446 C 6.227 20.613,6.149 21.350,6.101 22.083 C 6.054 22.817,6.043 23.304,6.078 23.167 C 6.415 21.818,6.595 19.344,6.276 20.446 M74.610 21.542 C 74.553 22.023,74.463 22.754,74.409 23.167 C 74.335 23.745,74.354 23.851,74.494 23.631 C 74.679 23.341,74.953 20.667,74.798 20.667 C 74.751 20.667,74.667 21.060,74.610 21.542 M143.373 21.129 C 143.260 21.369,143.175 21.758,143.186 21.992 C 143.201 22.327,143.221 22.346,143.279 22.083 C 143.319 21.900,143.433 21.541,143.532 21.286 C 143.765 20.684,143.641 20.560,143.373 21.129 M122.187 22.125 C 121.716 25.385,121.606 26.449,121.755 26.300 C 121.804 26.252,121.953 25.320,122.087 24.231 C 122.221 23.141,122.379 21.931,122.437 21.542 C 122.496 21.152,122.506 20.833,122.459 20.833 C 122.412 20.833,122.290 21.415,122.187 22.125 M319.862 22.728 C 319.755 23.311,319.675 24.042,319.686 24.353 C 319.708 24.992,319.728 24.916,320.011 23.121 C 320.258 21.556,320.137 21.237,319.862 22.728 M38.885 22.808 C 38.410 22.872,37.961 22.983,37.888 23.056 C 37.816 23.129,38.167 23.127,38.670 23.053 C 39.839 22.879,42.057 22.878,42.917 23.051 C 43.451 23.159,43.522 23.147,43.277 22.993 C 42.911 22.763,40.103 22.644,38.885 22.808 M286.792 23.123 C 287.273 23.157,288.060 23.157,288.542 23.123 C 289.023 23.089,288.629 23.062,287.667 23.062 C 286.704 23.062,286.310 23.089,286.792 23.123 M36.167 23.417 C 35.902 23.568,35.844 23.657,36.008 23.661 C 36.150 23.664,36.338 23.597,36.425 23.512 C 36.512 23.427,36.846 23.326,37.167 23.289 L 37.750 23.220 37.167 23.199 C 36.846 23.188,36.396 23.286,36.167 23.417 M43.917 23.286 C 44.100 23.330,44.321 23.433,44.408 23.516 C 44.495 23.599,44.683 23.664,44.825 23.661 C 44.989 23.657,44.931 23.568,44.667 23.417 C 44.438 23.286,44.100 23.185,43.917 23.192 L 43.583 23.205 43.917 23.286 M244.613 23.276 C 244.553 23.336,244.222 23.445,243.877 23.518 C 243.321 23.635,243.335 23.639,244.000 23.555 C 245.111 23.416,248.853 23.412,249.333 23.550 C 249.659 23.644,249.641 23.617,249.250 23.426 C 248.735 23.174,244.841 23.048,244.613 23.276 M284.083 23.426 C 283.664 23.631,283.651 23.654,284.000 23.568 C 284.229 23.511,284.754 23.408,285.167 23.338 L 285.917 23.211 285.250 23.196 C 284.883 23.188,284.358 23.292,284.083 23.426 M290.000 23.289 C 290.321 23.326,290.655 23.427,290.742 23.512 C 290.829 23.597,291.016 23.664,291.158 23.661 C 291.322 23.657,291.264 23.568,291.000 23.417 C 290.771 23.286,290.321 23.188,290.000 23.199 L 289.417 23.220 290.000 23.289 M213.435 24.422 C 213.373 25.020,213.286 25.751,213.240 26.047 C 213.175 26.471,213.190 26.512,213.312 26.240 C 213.481 25.864,213.754 23.333,213.626 23.333 C 213.582 23.333,213.496 23.823,213.435 24.422 M5.679 24.777 C 5.567 25.433,5.507 26.183,5.546 26.443 C 5.606 26.848,5.620 26.827,5.642 26.300 C 5.655 25.961,5.748 25.304,5.847 24.841 C 5.946 24.378,5.995 23.906,5.955 23.792 C 5.916 23.677,5.791 24.120,5.679 24.777 M34.667 23.931 C 34.103 24.243,34.504 24.231,35.106 23.918 C 35.369 23.781,35.471 23.676,35.333 23.684 C 35.196 23.692,34.896 23.803,34.667 23.931 M45.426 23.911 C 45.604 24.046,45.844 24.158,45.958 24.161 C 46.073 24.164,46.167 24.228,46.167 24.302 C 46.167 24.376,46.390 24.602,46.662 24.804 C 47.006 25.058,47.128 25.093,47.061 24.918 C 47.008 24.780,46.911 24.667,46.846 24.667 C 46.780 24.667,46.475 24.442,46.167 24.167 C 45.859 23.892,45.493 23.667,45.355 23.667 C 45.163 23.667,45.180 23.725,45.426 23.911 M242.093 23.922 C 241.684 24.232,241.811 24.232,242.523 23.923 C 242.911 23.755,242.981 23.679,242.750 23.678 C 242.567 23.678,242.271 23.787,242.093 23.922 M250.894 24.182 C 251.799 24.750,252.339 25.284,252.857 26.121 C 253.048 26.431,253.244 26.645,253.292 26.597 C 253.602 26.286,250.921 23.661,250.303 23.670 C 250.182 23.672,250.448 23.902,250.894 24.182 M282.926 23.922 C 282.667 24.118,282.655 24.167,282.864 24.167 C 283.008 24.167,283.219 24.054,283.333 23.917 C 283.597 23.599,283.350 23.602,282.926 23.922 M291.760 23.911 C 291.938 24.046,292.171 24.158,292.278 24.161 C 292.384 24.164,292.769 24.504,293.132 24.917 C 293.495 25.329,293.858 25.666,293.938 25.664 C 294.018 25.663,294.007 25.606,293.913 25.539 C 293.819 25.472,293.611 25.210,293.450 24.958 C 293.290 24.705,292.862 24.312,292.499 24.083 C 291.793 23.637,291.222 23.505,291.760 23.911 M97.025 25.032 C 96.901 25.646,96.838 26.246,96.886 26.365 C 96.934 26.485,96.980 26.410,96.987 26.197 C 96.994 25.985,97.079 25.663,97.176 25.482 C 97.273 25.301,97.330 24.874,97.301 24.535 C 97.255 23.981,97.226 24.033,97.025 25.032 M33.646 24.433 C 33.145 24.699,32.708 25.167,32.962 25.167 C 33.055 25.167,33.174 25.054,33.227 24.917 C 33.280 24.779,33.429 24.667,33.558 24.667 C 33.687 24.667,33.886 24.554,34.000 24.417 C 34.241 24.126,34.226 24.127,33.646 24.433 M241.093 24.422 C 240.915 24.557,240.845 24.667,240.936 24.667 C 241.028 24.667,241.249 24.557,241.426 24.422 C 241.604 24.287,241.675 24.177,241.583 24.177 C 241.492 24.177,241.271 24.287,241.093 24.422 M281.333 25.083 C 280.835 25.587,280.475 26.000,280.533 26.000 C 280.590 26.000,281.060 25.587,281.576 25.083 C 282.092 24.579,282.453 24.167,282.377 24.167 C 282.301 24.167,281.831 24.579,281.333 25.083 M167.514 24.669 C 167.468 25.517,169.314 27.508,171.125 28.565 C 171.744 28.926,171.203 28.412,170.458 27.931 C 169.247 27.149,168.307 26.085,167.722 24.833 C 167.609 24.593,167.521 24.523,167.514 24.669 M240.167 24.917 C 240.051 25.056,240.033 25.167,240.126 25.167 C 240.218 25.167,240.386 25.054,240.500 24.917 C 240.616 24.777,240.634 24.667,240.541 24.667 C 240.449 24.667,240.281 24.779,240.167 24.917 M74.111 25.417 C 73.964 26.210,73.816 27.561,73.929 27.083 C 73.973 26.900,74.089 26.483,74.187 26.158 C 74.285 25.832,74.336 25.382,74.300 25.158 C 74.248 24.830,74.211 24.881,74.111 25.417 M319.336 26.458 C 319.227 27.260,319.070 28.277,318.986 28.717 C 318.816 29.606,318.786 30.269,318.922 30.134 C 318.998 30.058,319.210 28.705,319.614 25.708 C 319.667 25.319,319.671 25.000,319.622 25.000 C 319.574 25.000,319.445 25.656,319.336 26.458 M31.906 25.874 C 31.545 26.259,31.432 26.427,31.655 26.246 C 32.308 25.716,32.699 25.311,32.628 25.239 C 32.592 25.203,32.267 25.488,31.906 25.874 M239.280 25.803 C 239.034 26.059,238.833 26.360,238.833 26.473 C 238.833 26.586,239.068 26.411,239.356 26.084 C 239.980 25.372,239.917 25.138,239.280 25.803 M47.667 26.031 C 47.667 26.175,47.779 26.386,47.917 26.500 C 48.235 26.764,48.232 26.516,47.911 26.093 C 47.715 25.834,47.667 25.822,47.667 26.031 M294.000 26.031 C 294.000 26.175,294.112 26.386,294.250 26.500 C 294.568 26.764,294.565 26.516,294.245 26.093 C 294.049 25.834,294.000 25.822,294.000 26.031 M143.192 26.667 C 143.184 26.988,143.293 27.438,143.433 27.667 L 143.688 28.083 143.579 27.667 C 143.520 27.438,143.411 26.988,143.338 26.667 L 143.205 26.083 143.192 26.667 M121.445 27.458 C 121.389 27.985,121.298 28.754,121.244 29.167 C 121.177 29.676,121.197 29.837,121.306 29.667 C 121.473 29.407,121.766 26.500,121.626 26.500 C 121.582 26.500,121.501 26.931,121.445 27.458 M48.502 27.671 C 48.657 28.131,48.845 28.561,48.919 28.628 C 48.993 28.695,48.998 28.600,48.932 28.417 C 48.865 28.233,48.769 27.879,48.718 27.629 C 48.668 27.379,48.535 27.098,48.423 27.005 C 48.289 26.894,48.316 27.122,48.502 27.671 M279.696 27.181 C 279.576 27.374,279.509 27.564,279.548 27.604 C 279.664 27.719,280.037 27.193,279.974 27.004 C 279.942 26.908,279.817 26.988,279.696 27.181 M294.507 27.115 C 294.503 27.316,294.575 27.527,294.667 27.583 C 294.758 27.640,294.845 27.926,294.858 28.218 C 294.879 28.666,294.894 28.684,294.949 28.329 C 294.985 28.097,294.902 27.647,294.764 27.329 C 294.567 26.874,294.512 26.829,294.507 27.115 M5.242 27.742 C 5.179 28.168,5.164 28.553,5.210 28.599 C 5.256 28.645,5.345 28.334,5.409 27.909 C 5.473 27.484,5.488 27.099,5.442 27.053 C 5.396 27.007,5.306 27.317,5.242 27.742 M238.288 27.254 C 238.232 27.435,238.031 28.026,237.843 28.568 C 237.452 29.689,237.447 29.719,237.648 29.595 C 237.729 29.545,237.844 29.248,237.902 28.935 C 237.961 28.623,238.125 28.133,238.268 27.848 C 238.410 27.563,238.496 27.238,238.459 27.127 C 238.421 27.013,238.347 27.069,238.288 27.254 M253.342 27.333 C 253.340 27.471,253.446 27.883,253.579 28.250 C 253.734 28.681,253.821 28.791,253.826 28.561 C 253.830 28.365,253.724 27.953,253.590 27.644 C 253.456 27.336,253.345 27.196,253.342 27.333 M212.874 28.736 C 212.590 30.088,212.632 30.626,212.935 29.501 C 213.070 28.997,213.159 28.397,213.131 28.167 C 213.099 27.894,213.010 28.090,212.874 28.736 M279.202 28.172 C 279.091 28.350,278.998 28.628,278.995 28.789 C 278.992 28.951,278.879 29.229,278.745 29.407 C 278.610 29.585,278.511 29.960,278.525 30.240 L 278.550 30.750 278.623 30.258 C 278.663 29.987,278.801 29.614,278.931 29.429 C 279.061 29.244,279.167 28.937,279.167 28.746 C 279.167 28.556,279.255 28.311,279.364 28.203 C 279.472 28.094,279.526 27.970,279.483 27.927 C 279.439 27.884,279.313 27.994,279.202 28.172 M96.534 28.800 C 96.424 29.286,96.340 30.036,96.348 30.467 C 96.362 31.175,96.386 31.122,96.604 29.917 C 96.885 28.362,96.831 27.498,96.534 28.800 M30.032 28.724 C 29.923 29.026,29.839 29.456,29.846 29.678 C 29.854 29.901,29.882 30.008,29.910 29.917 C 29.937 29.825,30.056 29.431,30.173 29.041 C 30.429 28.194,30.315 27.940,30.032 28.724 M73.590 28.792 C 73.528 29.135,73.452 29.904,73.422 30.500 L 73.368 31.583 73.511 30.583 C 73.590 30.033,73.703 29.265,73.762 28.875 C 73.893 28.001,73.746 27.930,73.590 28.792 M143.667 28.711 C 143.667 28.757,143.779 29.010,143.916 29.273 C 144.131 29.686,144.165 29.703,144.166 29.395 C 144.166 29.200,144.054 28.947,143.917 28.833 C 143.779 28.719,143.667 28.664,143.667 28.711 M4.965 29.667 C 4.671 31.992,4.662 32.293,4.922 31.083 C 5.059 30.442,5.151 29.654,5.126 29.333 C 5.088 28.849,5.061 28.905,4.965 29.667 M49.115 30.833 C 49.184 32.657,49.100 33.994,48.755 36.583 C 48.672 37.200,48.684 37.187,48.907 36.417 C 49.218 35.343,49.397 31.234,49.194 29.833 C 49.063 28.925,49.050 29.086,49.115 30.833 M295.083 30.917 C 295.083 32.098,295.131 32.844,295.189 32.574 C 295.247 32.304,295.294 31.558,295.294 30.917 C 295.294 30.275,295.247 29.529,295.189 29.259 C 295.131 28.990,295.083 29.735,295.083 30.917 M173.500 29.352 C 173.821 29.448,174.346 29.556,174.667 29.591 L 175.250 29.656 174.667 29.481 C 174.346 29.385,173.821 29.278,173.500 29.242 L 172.917 29.178 173.500 29.352 M176.083 29.833 C 176.542 29.909,177.442 29.982,178.083 29.995 C 179.220 30.019,180.338 30.177,181.151 30.428 C 181.420 30.511,181.516 30.494,181.442 30.375 C 181.288 30.126,179.431 29.864,177.167 29.772 C 175.829 29.718,175.502 29.736,176.083 29.833 M237.278 30.792 C 237.222 31.319,237.132 32.087,237.078 32.500 C 237.011 33.010,237.031 33.170,237.139 33.000 C 237.306 32.740,237.600 29.833,237.460 29.833 C 237.416 29.833,237.334 30.265,237.278 30.792 M29.514 31.008 C 29.415 31.471,29.344 32.240,29.358 32.717 C 29.381 33.553,29.386 33.543,29.505 32.417 C 29.573 31.775,29.684 31.006,29.752 30.708 C 29.819 30.410,29.834 30.167,29.785 30.167 C 29.735 30.167,29.613 30.545,29.514 31.008 M318.610 31.375 C 318.553 31.948,318.462 32.604,318.408 32.833 C 318.330 33.167,318.345 33.196,318.485 32.979 C 318.666 32.698,318.946 30.333,318.798 30.333 C 318.752 30.333,318.668 30.802,318.610 31.375 M182.076 30.623 C 182.346 30.663,182.719 30.801,182.904 30.931 C 183.089 31.061,183.386 31.167,183.563 31.167 C 183.740 31.167,184.291 31.359,184.787 31.593 C 185.283 31.828,185.772 31.993,185.873 31.959 C 185.974 31.925,185.801 31.801,185.487 31.684 C 185.173 31.567,184.718 31.365,184.474 31.235 C 184.231 31.106,183.856 30.998,183.641 30.995 C 183.426 30.992,183.104 30.879,182.926 30.745 C 182.749 30.610,182.374 30.511,182.093 30.525 L 181.583 30.550 182.076 30.623 M120.862 31.641 C 120.742 32.223,120.674 32.730,120.711 32.767 C 120.852 32.907,121.194 31.554,121.138 31.078 C 121.093 30.691,121.033 30.814,120.862 31.641 M145.000 31.285 C 145.000 31.718,148.378 35.177,148.592 34.963 C 148.631 34.925,148.170 34.486,147.568 33.988 C 146.965 33.490,146.141 32.638,145.736 32.094 C 145.331 31.549,145.000 31.185,145.000 31.285 M96.109 31.779 C 96.060 31.946,95.982 32.683,95.935 33.417 C 95.887 34.150,95.876 34.637,95.911 34.500 C 96.248 33.151,96.428 30.677,96.109 31.779 M73.015 33.035 C 72.907 33.795,72.748 34.829,72.660 35.333 C 72.573 35.837,72.428 36.828,72.339 37.534 C 72.250 38.241,72.131 39.028,72.075 39.284 C 72.001 39.623,72.019 39.685,72.140 39.511 C 72.232 39.379,72.356 38.817,72.416 38.261 C 72.475 37.705,72.623 36.650,72.745 35.917 C 73.185 33.256,73.374 31.818,73.292 31.737 C 73.247 31.691,73.122 32.275,73.015 33.035 M277.936 32.241 C 277.879 32.567,277.786 33.106,277.729 33.439 C 277.661 33.835,277.684 34.009,277.796 33.940 C 277.890 33.882,278.020 33.379,278.084 32.823 C 278.212 31.722,278.101 31.287,277.936 32.241 M212.369 32.317 C 212.258 32.628,212.175 33.153,212.185 33.483 C 212.202 34.040,212.220 34.017,212.433 33.167 C 212.703 32.086,212.659 31.502,212.369 32.317 M253.630 32.083 C 253.568 32.267,253.473 32.717,253.418 33.083 L 253.319 33.750 253.583 33.171 C 253.729 32.853,253.825 32.403,253.795 32.171 C 253.748 31.792,253.731 31.783,253.630 32.083 M186.333 32.250 C 186.447 32.387,186.658 32.500,186.802 32.500 C 187.012 32.500,186.999 32.451,186.740 32.255 C 186.317 31.935,186.069 31.932,186.333 32.250 M187.577 32.915 C 187.848 33.137,188.103 33.286,188.142 33.247 C 188.238 33.151,187.462 32.511,187.250 32.512 C 187.158 32.512,187.305 32.693,187.577 32.915 M294.794 34.000 C 294.525 36.042,294.515 36.401,294.760 35.250 C 294.897 34.608,294.987 33.858,294.962 33.583 C 294.928 33.230,294.879 33.353,294.794 34.000 M4.362 34.308 C 4.242 34.890,4.174 35.396,4.211 35.434 C 4.352 35.574,4.694 34.220,4.638 33.745 C 4.593 33.358,4.533 33.480,4.362 34.308 M189.893 34.875 C 190.740 35.723,191.525 36.633,191.639 36.897 C 191.753 37.160,191.882 37.340,191.926 37.296 C 192.182 37.041,190.744 35.303,188.957 33.708 C 187.972 32.830,188.468 33.448,189.893 34.875 M318.131 34.500 C 318.065 35.188,317.971 35.938,317.921 36.167 C 317.854 36.471,317.900 36.433,318.089 36.025 C 318.262 35.651,318.332 35.101,318.299 34.358 L 318.250 33.250 318.131 34.500 M236.703 34.793 C 236.450 36.401,236.447 36.692,236.685 36.282 C 236.856 35.988,237.118 33.500,236.978 33.500 C 236.939 33.500,236.815 34.082,236.703 34.793 M29.091 34.424 C 29.027 34.849,29.012 35.235,29.058 35.281 C 29.104 35.326,29.194 35.016,29.258 34.591 C 29.321 34.166,29.336 33.780,29.290 33.735 C 29.244 33.689,29.155 33.999,29.091 34.424 M120.447 34.750 C 120.376 35.117,120.288 35.754,120.251 36.167 L 120.183 36.917 120.424 36.000 C 120.557 35.496,120.646 34.858,120.621 34.583 C 120.580 34.117,120.568 34.128,120.447 34.750 M253.042 35.282 C 252.927 35.941,252.843 36.879,252.854 37.365 C 252.873 38.154,252.900 38.077,253.108 36.667 C 253.398 34.698,253.343 33.548,253.042 35.282 M277.460 35.250 C 277.392 35.800,277.297 36.438,277.250 36.667 C 277.185 36.977,277.229 36.940,277.423 36.523 C 277.582 36.181,277.663 35.630,277.633 35.106 L 277.583 34.250 277.460 35.250 M95.533 36.167 C 95.424 36.946,95.296 37.883,95.246 38.250 C 95.197 38.617,95.121 39.179,95.078 39.500 C 95.020 39.925,95.065 39.857,95.242 39.250 C 95.376 38.792,95.489 38.102,95.493 37.717 C 95.497 37.331,95.581 36.639,95.680 36.179 C 95.778 35.718,95.830 35.208,95.794 35.046 C 95.759 34.883,95.641 35.387,95.533 36.167 M211.947 35.167 C 211.896 35.396,211.812 35.996,211.761 36.500 C 211.710 37.004,211.557 38.204,211.422 39.167 C 210.847 43.247,210.796 43.684,210.877 43.766 C 210.924 43.813,211.048 43.191,211.152 42.384 C 211.452 40.063,211.838 37.341,212.027 36.218 C 212.198 35.204,212.132 34.345,211.947 35.167 M28.778 36.458 C 28.722 36.985,28.632 37.754,28.578 38.167 C 28.511 38.676,28.531 38.837,28.639 38.667 C 28.806 38.407,29.100 35.500,28.960 35.500 C 28.916 35.500,28.834 35.931,28.778 36.458 M149.713 35.603 C 149.808 35.754,150.285 36.009,151.750 36.694 C 152.208 36.908,152.631 37.148,152.689 37.228 C 152.747 37.309,152.890 37.342,153.006 37.304 C 153.122 37.265,152.475 36.863,151.567 36.411 C 149.518 35.391,149.602 35.427,149.713 35.603 M3.859 37.800 C 3.693 38.562,3.600 39.886,3.744 39.417 C 3.960 38.718,4.195 37.336,4.130 37.147 C 4.086 37.020,3.964 37.314,3.859 37.800 M294.184 38.267 C 294.058 38.917,293.997 39.555,294.048 39.683 C 294.099 39.812,294.146 39.705,294.154 39.447 C 294.161 39.189,294.246 38.830,294.343 38.649 C 294.440 38.467,294.495 38.041,294.466 37.701 C 294.419 37.162,294.383 37.234,294.184 38.267 M48.456 38.250 C 48.398 38.800,48.313 39.587,48.267 40.000 L 48.184 40.750 48.354 40.083 C 48.592 39.155,48.709 38.123,48.629 37.650 C 48.593 37.430,48.515 37.700,48.456 38.250 M153.894 37.584 C 154.157 37.721,154.494 37.833,154.644 37.832 C 154.806 37.832,154.723 37.730,154.439 37.582 C 154.177 37.445,153.839 37.334,153.689 37.334 C 153.527 37.335,153.610 37.436,153.894 37.584 M192.000 37.698 C 192.000 37.842,192.112 38.053,192.250 38.167 C 192.568 38.431,192.565 38.183,192.245 37.760 C 192.049 37.501,192.000 37.488,192.000 37.698 M119.963 38.250 C 119.902 38.617,119.813 39.479,119.765 40.167 L 119.677 41.417 119.924 39.833 C 120.060 38.962,120.149 38.100,120.122 37.917 C 120.096 37.733,120.024 37.883,119.963 38.250 M236.289 38.375 C 236.222 38.810,236.133 39.523,236.092 39.958 L 236.016 40.750 236.258 39.833 C 236.391 39.329,236.480 38.617,236.456 38.250 L 236.412 37.583 236.289 38.375 M155.750 38.089 C 156.025 38.215,156.400 38.316,156.583 38.313 C 156.800 38.310,156.712 38.229,156.333 38.083 C 155.570 37.789,155.105 37.794,155.750 38.089 M276.947 38.583 C 276.876 38.950,276.788 39.587,276.751 40.000 L 276.683 40.750 276.924 39.833 C 277.057 39.329,277.146 38.692,277.121 38.417 C 277.080 37.950,277.068 37.962,276.947 38.583 M317.533 38.553 C 317.308 39.177,317.262 40.817,317.486 40.250 C 317.622 39.904,317.875 38.000,317.785 38.000 C 317.757 38.000,317.644 38.249,317.533 38.553 M157.750 38.578 C 158.053 38.723,158.711 38.812,159.417 38.802 L 160.583 38.786 159.500 38.670 C 158.904 38.606,158.154 38.506,157.833 38.446 L 157.250 38.337 157.750 38.578 M192.507 38.939 C 192.503 39.135,192.610 39.547,192.743 39.856 C 193.059 40.582,193.067 40.118,192.755 39.250 C 192.599 38.819,192.512 38.709,192.507 38.939 M161.167 39.008 C 161.487 39.097,162.087 39.239,162.500 39.322 C 162.912 39.405,163.438 39.521,163.667 39.581 C 164.022 39.674,164.040 39.662,163.787 39.501 C 163.493 39.313,162.285 39.042,161.167 38.912 L 160.583 38.844 161.167 39.008 M28.276 39.875 C 28.219 40.356,28.129 41.087,28.076 41.500 C 28.001 42.079,28.021 42.185,28.161 41.965 C 28.346 41.675,28.620 39.000,28.465 39.000 C 28.418 39.000,28.333 39.394,28.276 39.875 M252.601 39.355 C 252.556 39.572,252.442 40.650,252.348 41.750 C 252.253 42.850,252.026 44.950,251.842 46.417 C 251.485 49.259,251.456 49.600,251.578 49.478 C 251.621 49.435,251.771 48.391,251.912 47.158 C 252.053 45.925,252.239 44.392,252.326 43.750 C 252.633 41.497,252.855 39.133,252.770 39.047 C 252.722 39.000,252.646 39.138,252.601 39.355 M164.333 39.774 C 166.244 40.391,168.153 42.056,168.172 43.122 C 168.179 43.533,168.667 44.183,168.667 43.782 C 168.667 43.627,168.592 43.500,168.500 43.500 C 168.408 43.500,168.333 43.326,168.333 43.113 C 168.333 42.008,165.628 39.633,164.423 39.680 C 164.196 39.689,164.166 39.720,164.333 39.774 M71.776 40.875 C 71.719 41.356,71.629 42.087,71.576 42.500 C 71.501 43.079,71.521 43.185,71.661 42.965 C 71.846 42.675,72.120 40.000,71.965 40.000 C 71.918 40.000,71.833 40.394,71.776 40.875 M94.790 41.083 C 94.731 41.633,94.646 42.421,94.600 42.833 L 94.517 43.583 94.688 42.917 C 94.925 41.988,95.042 40.956,94.963 40.483 C 94.926 40.263,94.848 40.533,94.790 41.083 M3.419 40.784 C 3.351 40.949,3.273 41.796,3.246 42.667 C 3.218 43.538,3.226 43.987,3.263 43.667 C 3.300 43.346,3.417 42.538,3.523 41.871 C 3.711 40.686,3.663 40.188,3.419 40.784 M293.754 41.125 C 293.691 41.285,293.613 41.979,293.581 42.667 C 293.523 43.887,293.525 43.895,293.670 43.000 C 293.752 42.496,293.868 41.802,293.928 41.458 C 294.042 40.804,293.950 40.627,293.754 41.125 M47.958 41.917 C 47.894 42.283,47.802 42.921,47.754 43.333 L 47.667 44.083 47.924 43.167 C 48.066 42.662,48.157 42.025,48.128 41.750 C 48.078 41.283,48.067 41.293,47.958 41.917 M119.348 42.833 C 119.226 43.612,119.164 44.400,119.210 44.583 C 119.260 44.778,119.303 44.653,119.314 44.282 C 119.325 43.933,119.415 43.324,119.514 42.929 C 119.614 42.533,119.667 42.031,119.632 41.813 C 119.598 41.595,119.470 42.054,119.348 42.833 M235.675 42.848 C 235.554 43.635,235.496 44.385,235.547 44.515 C 235.598 44.644,235.646 44.510,235.654 44.217 C 235.661 43.923,235.748 43.306,235.846 42.845 C 235.945 42.385,235.997 41.875,235.961 41.712 C 235.925 41.550,235.797 42.061,235.675 42.848 M276.360 42.432 C 276.237 42.991,276.171 43.628,276.212 43.849 C 276.264 44.124,276.295 44.050,276.311 43.614 C 276.323 43.264,276.413 42.829,276.510 42.647 C 276.608 42.466,276.664 42.114,276.635 41.867 C 276.598 41.541,276.522 41.697,276.360 42.432 M317.104 42.000 C 317.033 42.321,316.951 42.958,316.920 43.417 C 316.890 43.875,316.896 44.025,316.934 43.750 C 316.972 43.475,317.086 42.981,317.186 42.653 C 317.286 42.324,317.338 41.912,317.300 41.736 C 317.252 41.512,317.193 41.591,317.104 42.000 M27.856 43.553 C 27.844 43.811,27.754 44.170,27.657 44.352 C 27.560 44.534,27.505 44.922,27.536 45.216 C 27.585 45.684,27.619 45.631,27.808 44.792 C 27.926 44.266,27.991 43.666,27.951 43.459 C 27.890 43.144,27.875 43.159,27.856 43.553 M192.795 44.167 C 192.476 45.822,192.471 45.969,192.755 45.197 C 192.901 44.802,192.995 44.277,192.963 44.031 C 192.911 43.616,192.898 43.626,192.795 44.167 M210.628 44.833 C 210.338 47.014,210.331 47.287,210.592 46.167 C 210.731 45.571,210.823 44.821,210.797 44.500 C 210.757 44.007,210.731 44.059,210.628 44.833 M71.275 44.750 C 71.204 45.117,71.118 45.829,71.082 46.333 C 71.022 47.187,71.035 47.165,71.260 46.000 C 71.393 45.313,71.480 44.600,71.452 44.417 C 71.423 44.222,71.349 44.360,71.275 44.750 M94.268 44.875 C 94.213 45.265,94.135 45.996,94.095 46.500 L 94.021 47.417 94.177 46.583 C 94.423 45.264,94.550 44.167,94.455 44.167 C 94.408 44.167,94.323 44.485,94.268 44.875 M293.256 44.451 C 293.191 44.616,293.113 45.500,293.082 46.417 C 293.052 47.333,293.056 47.821,293.092 47.500 C 293.128 47.179,293.244 46.332,293.350 45.618 C 293.537 44.354,293.496 43.846,293.256 44.451 M2.938 44.612 C 2.846 44.918,2.566 46.935,2.423 48.333 C 2.336 49.174,2.695 47.375,2.970 45.589 C 3.143 44.465,3.128 43.987,2.938 44.612 M168.724 45.583 C 168.724 46.317,168.754 46.596,168.789 46.204 C 168.824 45.812,168.824 45.212,168.788 44.871 C 168.752 44.529,168.723 44.850,168.724 45.583 M275.839 45.631 C 275.721 46.391,275.656 47.045,275.696 47.085 C 275.807 47.196,276.216 44.731,276.130 44.475 C 276.089 44.351,275.958 44.872,275.839 45.631 M316.638 45.000 C 316.371 46.914,316.169 48.182,316.065 48.597 C 315.990 48.894,316.011 49.013,316.125 48.942 C 316.221 48.883,316.349 48.291,316.410 47.626 C 316.470 46.961,316.596 46.220,316.688 45.980 C 316.780 45.739,316.831 45.252,316.799 44.896 L 316.743 44.250 316.638 45.000 M235.170 46.292 C 235.061 47.094,234.903 48.110,234.819 48.550 C 234.650 49.440,234.620 50.102,234.755 49.967 C 234.831 49.891,235.043 48.538,235.448 45.542 C 235.500 45.152,235.504 44.833,235.456 44.833 C 235.407 44.833,235.279 45.490,235.170 46.292 M47.354 46.333 C 47.230 47.112,47.165 47.938,47.208 48.167 C 47.263 48.454,47.295 48.372,47.311 47.900 C 47.323 47.524,47.413 46.987,47.511 46.707 C 47.609 46.427,47.664 45.909,47.634 45.557 C 47.591 45.043,47.536 45.195,47.354 46.333 M119.023 45.167 C 119.008 45.304,118.949 45.604,118.892 45.833 C 118.812 46.155,118.834 46.207,118.990 46.062 C 119.102 45.959,119.161 45.659,119.121 45.395 C 119.082 45.132,119.038 45.029,119.023 45.167 M192.182 46.630 C 192.064 46.916,192.006 47.247,192.053 47.367 C 192.103 47.489,192.146 47.435,192.154 47.242 C 192.161 47.054,192.250 46.817,192.352 46.715 C 192.454 46.613,192.506 46.435,192.468 46.319 C 192.429 46.204,192.301 46.343,192.182 46.630 M118.602 47.625 C 118.541 48.335,118.451 49.217,118.404 49.583 C 118.342 50.061,118.364 50.176,118.482 49.991 C 118.653 49.722,118.945 46.333,118.798 46.333 C 118.752 46.333,118.664 46.915,118.602 47.625 M27.195 48.228 C 27.088 48.811,27.009 49.542,27.019 49.853 C 27.041 50.492,27.061 50.416,27.344 48.621 C 27.591 47.056,27.470 46.737,27.195 48.228 M275.525 47.611 C 275.511 47.810,275.451 48.110,275.392 48.278 C 275.309 48.513,275.331 48.540,275.488 48.395 C 275.601 48.292,275.661 47.992,275.621 47.729 C 275.571 47.391,275.543 47.357,275.525 47.611 M70.708 48.628 C 70.594 49.294,70.507 50.044,70.515 50.295 C 70.523 50.545,70.638 50.150,70.771 49.417 C 70.903 48.683,70.990 47.933,70.964 47.750 C 70.938 47.567,70.823 47.962,70.708 48.628 M168.363 47.988 C 168.255 48.297,168.172 48.670,168.178 48.817 C 168.185 48.963,168.299 48.787,168.431 48.425 C 168.564 48.063,168.647 47.690,168.615 47.596 C 168.584 47.502,168.470 47.679,168.363 47.988 M142.211 48.051 C 141.860 48.441,140.793 50.515,140.892 50.614 C 140.924 50.647,141.183 50.203,141.467 49.628 C 142.291 47.959,142.373 47.878,142.896 48.221 C 143.137 48.379,143.333 48.440,143.333 48.356 C 143.333 47.897,142.543 47.682,142.211 48.051 M191.720 47.875 C 191.428 48.330,191.162 49.279,191.425 48.926 C 191.558 48.749,191.667 48.482,191.667 48.335 C 191.667 48.187,191.757 47.977,191.867 47.867 C 191.977 47.757,192.019 47.667,191.960 47.667 C 191.901 47.667,191.793 47.760,191.720 47.875 M210.015 49.042 C 209.885 49.845,209.829 50.551,209.890 50.612 C 209.950 50.673,210.000 50.517,210.000 50.267 C 210.000 50.016,210.079 49.664,210.176 49.483 C 210.272 49.303,210.328 48.802,210.301 48.369 C 210.254 47.645,210.232 47.698,210.015 49.042 M292.679 49.277 C 292.567 49.933,292.507 50.683,292.546 50.943 C 292.606 51.348,292.620 51.327,292.642 50.800 C 292.655 50.461,292.748 49.804,292.847 49.341 C 292.946 48.878,292.995 48.406,292.955 48.292 C 292.916 48.177,292.791 48.620,292.679 49.277 M93.697 49.250 C 93.576 49.800,93.507 50.625,93.542 51.083 L 93.607 51.917 93.637 50.983 C 93.653 50.470,93.747 49.818,93.846 49.535 C 93.945 49.251,94.001 48.846,93.971 48.635 C 93.937 48.395,93.834 48.627,93.697 49.250 M143.500 48.563 C 143.500 48.655,145.299 50.000,145.421 50.000 C 145.580 50.000,145.148 49.626,144.459 49.166 C 144.116 48.937,143.835 48.694,143.834 48.625 C 143.834 48.556,143.758 48.500,143.667 48.500 C 143.575 48.500,143.500 48.528,143.500 48.563 M275.109 49.708 C 275.062 50.281,274.977 51.050,274.920 51.417 C 274.840 51.938,274.857 52.020,275.000 51.792 C 275.191 51.487,275.452 48.667,275.289 48.667 C 275.237 48.667,275.156 49.135,275.109 49.708 M2.133 50.083 C 2.072 50.633,1.979 51.383,1.927 51.750 C 1.851 52.279,1.885 52.227,2.090 51.500 C 2.232 50.996,2.325 50.246,2.296 49.833 C 2.244 49.088,2.243 49.089,2.133 50.083 M167.781 49.701 C 167.650 50.014,167.088 50.735,166.531 51.302 C 165.974 51.869,165.581 52.333,165.658 52.333 C 166.082 52.333,168.343 49.454,168.105 49.216 C 168.058 49.169,167.912 49.387,167.781 49.701 M315.781 50.458 C 315.726 51.169,315.635 51.938,315.579 52.167 C 315.493 52.520,315.506 52.539,315.663 52.292 C 315.850 52.000,316.124 49.167,315.965 49.167 C 315.919 49.167,315.836 49.748,315.781 50.458 M46.850 49.858 C 46.749 50.147,46.677 50.916,46.690 51.567 L 46.714 52.750 46.833 51.667 C 46.899 51.071,47.009 50.302,47.078 49.958 C 47.231 49.197,47.100 49.140,46.850 49.858 M190.857 49.773 C 190.657 50.220,190.661 50.232,190.924 49.975 C 191.079 49.823,191.175 49.609,191.138 49.497 C 191.101 49.386,190.974 49.510,190.857 49.773 M251.289 51.083 C 251.219 51.908,251.129 52.883,251.089 53.250 C 251.049 53.617,251.127 53.392,251.262 52.750 C 251.397 52.108,251.487 51.133,251.462 50.583 C 251.419 49.632,251.411 49.656,251.289 51.083 M234.437 51.361 C 234.376 52.018,234.280 52.749,234.225 52.986 C 234.155 53.282,234.178 53.364,234.297 53.250 C 234.468 53.085,234.780 50.167,234.627 50.167 C 234.583 50.167,234.498 50.704,234.437 51.361 M118.110 51.208 C 118.053 51.690,117.963 52.421,117.909 52.833 C 117.835 53.412,117.854 53.518,117.994 53.298 C 118.179 53.008,118.453 50.333,118.298 50.333 C 118.251 50.333,118.167 50.727,118.110 51.208 M146.519 50.632 C 147.030 51.016,148.694 51.861,148.777 51.779 C 148.812 51.744,148.353 51.476,147.758 51.183 C 147.163 50.890,146.632 50.579,146.578 50.492 C 146.524 50.405,146.400 50.333,146.301 50.333 C 146.202 50.333,146.301 50.468,146.519 50.632 M189.919 51.381 C 189.160 52.565,189.013 52.851,189.348 52.493 C 189.797 52.014,190.683 50.632,190.633 50.489 C 190.606 50.410,190.284 50.812,189.919 51.381 M26.678 51.917 C 26.564 52.742,26.403 53.777,26.319 54.217 C 26.235 54.656,26.171 55.144,26.177 55.300 C 26.199 55.883,26.457 54.928,26.573 53.833 C 26.636 53.237,26.767 52.325,26.863 51.806 C 26.959 51.287,27.003 50.762,26.961 50.640 C 26.919 50.517,26.791 51.092,26.678 51.917 M70.173 52.449 C 70.065 53.256,69.872 54.442,69.745 55.083 C 69.618 55.725,69.477 56.692,69.433 57.232 C 69.389 57.772,69.288 58.279,69.208 58.358 C 69.129 58.437,63.860 58.483,57.498 58.459 L 45.932 58.417 45.816 58.000 C 45.750 57.765,45.693 57.705,45.683 57.861 C 45.632 58.712,44.964 58.667,57.476 58.664 C 63.860 58.663,69.179 58.601,69.297 58.526 C 69.420 58.448,69.574 57.797,69.660 56.987 C 69.742 56.215,69.881 55.208,69.970 54.750 C 70.277 53.149,70.541 51.152,70.456 51.067 C 70.409 51.020,70.282 51.642,70.173 52.449 M292.332 51.514 C 292.331 51.552,292.214 52.408,292.073 53.417 C 291.701 56.059,291.626 57.018,291.896 55.667 C 292.220 54.050,292.528 51.639,292.424 51.535 C 292.374 51.485,292.333 51.476,292.332 51.514 M209.592 51.951 C 209.528 52.116,209.449 52.925,209.416 53.750 C 209.383 54.575,209.388 55.025,209.427 54.750 C 209.467 54.475,209.585 53.705,209.690 53.038 C 209.876 51.863,209.829 51.341,209.592 51.951 M140.014 52.141 C 139.741 52.650,139.798 52.792,140.100 52.360 C 140.247 52.150,140.328 51.939,140.281 51.892 C 140.233 51.844,140.113 51.956,140.014 52.141 M149.240 52.089 C 149.418 52.223,149.718 52.325,149.907 52.314 C 150.242 52.295,150.242 52.293,149.917 52.214 C 149.733 52.170,149.512 52.067,149.425 51.984 C 149.338 51.901,149.188 51.836,149.092 51.839 C 148.995 51.842,149.062 51.954,149.240 52.089 M93.186 52.683 C 93.084 52.976,93.010 53.636,93.023 54.150 C 93.035 54.663,93.074 54.896,93.108 54.667 C 93.142 54.438,93.250 53.811,93.347 53.275 C 93.546 52.177,93.465 51.881,93.186 52.683 M150.479 52.542 C 150.605 52.702,150.867 52.825,151.062 52.814 C 151.399 52.796,151.400 52.791,151.083 52.713 C 150.900 52.668,150.637 52.545,150.500 52.440 C 150.283 52.275,150.280 52.288,150.479 52.542 M164.833 52.510 C 164.696 52.596,164.367 52.744,164.102 52.838 C 163.837 52.932,163.658 53.047,163.703 53.092 C 163.799 53.188,165.333 52.557,165.333 52.423 C 165.333 52.293,165.120 52.330,164.833 52.510 M274.537 53.626 C 274.284 55.235,274.280 55.525,274.519 55.116 C 274.690 54.822,274.951 52.333,274.811 52.333 C 274.772 52.333,274.649 52.915,274.537 53.626 M46.438 53.112 C 46.346 53.418,46.066 55.435,45.923 56.833 C 45.836 57.674,46.195 55.875,46.470 54.089 C 46.643 52.965,46.628 52.487,46.438 53.112 M139.514 53.141 C 139.241 53.650,139.298 53.792,139.600 53.360 C 139.747 53.150,139.828 52.939,139.781 52.892 C 139.733 52.844,139.613 52.956,139.514 53.141 M188.362 53.732 C 187.989 54.226,186.892 55.432,185.924 56.413 C 184.956 57.394,184.450 57.970,184.801 57.693 C 185.302 57.295,187.188 55.341,188.419 53.942 C 188.677 53.649,189.183 52.833,189.107 52.833 C 189.070 52.833,188.735 53.238,188.362 53.732 M152.839 53.320 C 153.163 53.384,153.538 53.493,153.672 53.564 C 153.807 53.634,153.771 53.573,153.593 53.429 C 153.415 53.285,153.040 53.175,152.760 53.186 C 152.253 53.205,152.253 53.206,152.839 53.320 M162.417 53.411 C 161.737 53.722,162.308 53.734,163.023 53.423 C 163.407 53.256,163.478 53.180,163.250 53.181 C 163.067 53.181,162.692 53.285,162.417 53.411 M1.623 54.250 C 1.475 55.106,1.326 56.521,1.429 56.083 C 1.473 55.900,1.588 55.485,1.685 55.162 C 1.783 54.838,1.835 54.350,1.800 54.078 C 1.742 53.613,1.731 53.624,1.623 54.250 M155.583 53.958 C 156.473 54.089,157.727 54.142,158.667 54.088 C 161.665 53.919,161.153 53.750,157.622 53.744 L 154.083 53.739 155.583 53.958 M315.213 54.657 C 315.100 55.247,315.039 55.761,315.076 55.798 C 315.211 55.934,315.528 54.564,315.473 54.080 C 315.430 53.703,315.368 53.842,315.213 54.657 M138.346 55.523 C 137.878 56.466,137.569 57.164,137.659 57.074 C 137.893 56.840,139.340 53.951,139.262 53.873 C 139.226 53.837,138.814 54.580,138.346 55.523 M233.943 55.042 C 233.886 55.523,233.796 56.254,233.743 56.667 C 233.668 57.245,233.687 57.351,233.828 57.131 C 234.012 56.841,234.286 54.167,234.131 54.167 C 234.085 54.167,234.000 54.560,233.943 55.042 M250.690 56.093 C 250.565 56.923,250.500 57.748,250.546 57.926 C 250.593 58.114,250.636 57.998,250.647 57.650 C 250.658 57.320,250.746 56.821,250.844 56.542 C 250.941 56.262,250.997 55.707,250.969 55.309 C 250.925 54.694,250.882 54.814,250.690 56.093 M117.689 55.386 C 117.677 55.644,117.587 56.004,117.490 56.185 C 117.393 56.367,117.339 56.756,117.369 57.049 C 117.418 57.517,117.452 57.464,117.641 56.626 C 117.760 56.099,117.824 55.499,117.784 55.292 C 117.724 54.977,117.708 54.992,117.689 55.386 M92.678 56.500 C 92.557 57.279,92.488 58.067,92.523 58.250 C 92.590 58.597,116.849 58.885,117.191 58.543 C 117.260 58.473,111.770 58.436,104.992 58.460 L 92.667 58.504 92.667 57.927 C 92.667 57.610,92.748 56.973,92.846 56.512 C 92.945 56.051,92.997 55.541,92.961 55.379 C 92.925 55.216,92.798 55.721,92.678 56.500 M209.088 55.855 C 209.036 56.072,208.976 56.850,208.955 57.583 L 208.917 58.917 221.083 58.936 C 228.856 58.948,233.325 58.895,233.458 58.790 C 233.798 58.522,233.695 58.294,233.345 58.540 C 232.783 58.934,209.104 58.797,209.023 58.399 C 208.990 58.237,209.058 57.554,209.173 56.882 C 209.367 55.748,209.302 54.964,209.088 55.855 M25.947 56.749 C 25.764 58.710,27.266 58.500,13.411 58.500 L 1.333 58.500 1.322 58.042 C 1.311 57.641,1.293 57.626,1.176 57.917 C 0.869 58.678,0.683 58.667,13.405 58.667 C 22.769 58.667,25.499 58.620,25.718 58.458 C 25.981 58.264,26.366 55.667,26.132 55.667 C 26.086 55.667,26.003 56.154,25.947 56.749 M274.193 56.534 C 274.179 56.873,274.097 57.323,274.012 57.534 C 273.926 57.744,273.817 58.104,273.769 58.333 L 273.681 58.750 262.244 58.738 C 252.530 58.727,250.783 58.690,250.656 58.488 C 250.560 58.337,250.504 58.323,250.503 58.448 C 250.497 58.883,251.319 58.916,262.354 58.924 L 273.791 58.932 274.074 57.986 C 274.230 57.466,274.327 56.787,274.289 56.478 L 274.220 55.917 274.193 56.534 M137.197 57.536 C 137.089 57.645,137.000 57.848,137.000 57.987 C 137.000 58.161,137.084 58.121,137.267 57.860 C 137.559 57.442,137.512 57.221,137.197 57.536 M291.487 57.750 C 291.444 58.025,291.473 58.407,291.552 58.599 L 291.696 58.948 303.057 58.939 C 315.783 58.930,315.018 59.006,314.969 57.750 L 314.950 57.250 314.878 57.750 C 314.724 58.812,315.460 58.750,303.054 58.750 L 291.750 58.750 291.658 58.000 C 291.576 57.334,291.557 57.306,291.487 57.750 M137.000 58.542 C 137.000 58.610,147.533 58.667,160.407 58.667 C 173.281 58.667,183.848 58.610,183.891 58.542 C 183.933 58.473,173.400 58.417,160.484 58.417 C 147.568 58.417,137.000 58.473,137.000 58.542 " stroke="none" fill="#b4acac" fill-rule="evenodd" data-index="4" style="opacity: 1;"></path></g></svg>